<?xml version="1.0" encoding="UTF-8"?>
<svg version="1.1" xmlns="http://www.w3.org/2000/svg" width="144" height="144">
<path d="M0 0 C3.79850137 2.33192022 7.37643747 4.90147312 10.953125 7.55859375 C12.57054419 8.74364981 14.18905457 9.92721784 15.80859375 11.109375 C16.61989746 11.70186035 17.43120117 12.2943457 18.26708984 12.90478516 C21.72870068 15.40788371 25.23900506 17.83578229 28.765625 20.24609375 C29.40902832 20.68630859 30.05243164 21.12652344 30.71533203 21.58007812 C32.68935179 22.92867077 34.66486582 24.27505099 36.640625 25.62109375 C39.53835459 27.59750063 42.43373013 29.57730758 45.328125 31.55859375 C46.3173999 32.23172607 46.3173999 32.23172607 47.32666016 32.91845703 C50.88517728 35.35429743 54.30923395 37.87572177 57.640625 40.62109375 C55.65749667 49.08355947 53.22046286 57.30105035 50.4453125 65.53515625 C50.05240021 66.71201996 49.65948792 67.88888367 49.25466919 69.10140991 C48.43149953 71.56424626 47.60618674 74.02636725 46.77880859 76.48779297 C45.50794416 80.26894624 44.24366526 84.05221647 42.98046875 87.8359375 C42.17746022 90.23580322 41.37408803 92.6355473 40.5703125 95.03515625 C40.19115692 96.16837311 39.81200134 97.30158997 39.4213562 98.46914673 C39.07074127 99.51138397 38.72012634 100.55362122 38.35888672 101.62744141 C38.05038788 102.54610992 37.74188904 103.46477844 37.42404175 104.4112854 C36.640625 106.62109375 36.640625 106.62109375 35.640625 108.62109375 C11.220625 108.62109375 -13.199375 108.62109375 -38.359375 108.62109375 C-42.01 97.79296875 -45.660625 86.96484375 -49.421875 75.80859375 C-50.57953369 72.3902417 -51.73719238 68.97188965 -52.92993164 65.44995117 C-54.33093262 61.27404785 -54.33093262 61.27404785 -54.98435974 59.31880188 C-55.44276017 57.95281841 -55.90472717 56.5880287 -56.36949158 55.22419739 C-57.07251967 53.1589339 -57.76416158 51.09017334 -58.45336914 49.02026367 C-58.84641739 47.8544426 -59.23946564 46.68862152 -59.64442444 45.48747253 C-60.359375 42.62109375 -60.359375 42.62109375 -59.359375 39.62109375 C-57.4519043 38.03393555 -57.4519043 38.03393555 -54.93359375 36.3203125 C-54.001521 35.67980957 -53.06944824 35.03930664 -52.10913086 34.37939453 C-50.59331421 33.35434814 -50.59331421 33.35434814 -49.046875 32.30859375 C-46.93726873 30.86231644 -44.82789801 29.41569551 -42.71875 27.96875 C-41.65205078 27.24059082 -40.58535156 26.51243164 -39.48632812 25.76220703 C-34.90059341 22.62222472 -30.34806187 19.43583344 -25.796875 16.24609375 C-24.98041504 15.67850342 -24.16395508 15.11091309 -23.32275391 14.52612305 C-19.55533013 11.90084041 -15.8296384 9.24385351 -12.1796875 6.45703125 C-11.53974854 5.97540527 -10.89980957 5.4937793 -10.24047852 4.99755859 C-9.06756388 4.10980283 -7.90553552 3.20738592 -6.75756836 2.28759766 C-4.3638462 0.48674669 -3.02903469 -0.48645094 0 0 Z " fill="#3EB244" transform="translate(72.359375,19.37890625)"/>
<path d="M0 0 C3.79850137 2.33192022 7.37643747 4.90147312 10.953125 7.55859375 C12.57054419 8.74364981 14.18905457 9.92721784 15.80859375 11.109375 C16.61989746 11.70186035 17.43120117 12.2943457 18.26708984 12.90478516 C21.72870068 15.40788371 25.23900506 17.83578229 28.765625 20.24609375 C29.40902832 20.68630859 30.05243164 21.12652344 30.71533203 21.58007812 C32.68935179 22.92867077 34.66486582 24.27505099 36.640625 25.62109375 C39.53835459 27.59750063 42.43373013 29.57730758 45.328125 31.55859375 C46.3173999 32.23172607 46.3173999 32.23172607 47.32666016 32.91845703 C50.88517728 35.35429743 54.30923395 37.87572177 57.640625 40.62109375 C55.65749667 49.08355947 53.22046286 57.30105035 50.4453125 65.53515625 C50.05240021 66.71201996 49.65948792 67.88888367 49.25466919 69.10140991 C48.43149953 71.56424626 47.60618674 74.02636725 46.77880859 76.48779297 C45.50794416 80.26894624 44.24366526 84.05221647 42.98046875 87.8359375 C42.17746022 90.23580322 41.37408803 92.6355473 40.5703125 95.03515625 C40.19115692 96.16837311 39.81200134 97.30158997 39.4213562 98.46914673 C39.07074127 99.51138397 38.72012634 100.55362122 38.35888672 101.62744141 C38.05038788 102.54610992 37.74188904 103.46477844 37.42404175 104.4112854 C36.640625 106.62109375 36.640625 106.62109375 35.640625 108.62109375 C11.220625 108.62109375 -13.199375 108.62109375 -38.359375 108.62109375 C-42.01 97.79296875 -45.660625 86.96484375 -49.421875 75.80859375 C-50.57953369 72.3902417 -51.73719238 68.97188965 -52.92993164 65.44995117 C-54.33093262 61.27404785 -54.33093262 61.27404785 -54.98435974 59.31880188 C-55.44276017 57.95281841 -55.90472717 56.5880287 -56.36949158 55.22419739 C-57.07251967 53.1589339 -57.76416158 51.09017334 -58.45336914 49.02026367 C-58.84641739 47.8544426 -59.23946564 46.68862152 -59.64442444 45.48747253 C-60.359375 42.62109375 -60.359375 42.62109375 -59.359375 39.62109375 C-57.4519043 38.03393555 -57.4519043 38.03393555 -54.93359375 36.3203125 C-54.001521 35.67980957 -53.06944824 35.03930664 -52.10913086 34.37939453 C-50.59331421 33.35434814 -50.59331421 33.35434814 -49.046875 32.30859375 C-46.93726873 30.86231644 -44.82789801 29.41569551 -42.71875 27.96875 C-41.65205078 27.24059082 -40.58535156 26.51243164 -39.48632812 25.76220703 C-34.90059341 22.62222472 -30.34806187 19.43583344 -25.796875 16.24609375 C-24.98041504 15.67850342 -24.16395508 15.11091309 -23.32275391 14.52612305 C-19.55533013 11.90084041 -15.8296384 9.24385351 -12.1796875 6.45703125 C-11.53974854 5.97540527 -10.89980957 5.4937793 -10.24047852 4.99755859 C-9.06756388 4.10980283 -7.90553552 3.20738592 -6.75756836 2.28759766 C-4.3638462 0.48674669 -3.02903469 -0.48645094 0 0 Z M-5.78125 3.89453125 C-6.47863281 4.39082031 -7.17601563 4.88710938 -7.89453125 5.3984375 C-8.62542969 5.92566406 -9.35632813 6.45289063 -10.109375 6.99609375 C-10.79386719 7.48464844 -11.47835937 7.97320313 -12.18359375 8.4765625 C-13.68349243 9.5479187 -15.17043654 10.6375524 -16.64672852 11.74121094 C-18.75620097 13.20308997 -20.77839834 14.41737391 -23.02319336 15.63378906 C-29.80865622 19.38398086 -29.80865622 19.38398086 -34.10321045 25.55828857 C-35.17574886 30.90305604 -34.77824518 36.21898312 -34.421875 41.62109375 C-34.37729007 43.24463388 -34.33882971 44.86835431 -34.30664062 46.4921875 C-34.11551763 52.58229852 -34.11551763 52.58229852 -33.359375 58.62109375 C-29.88813683 60.93525253 -26.81679559 61.35902675 -22.796875 61.99609375 C-16.2197422 63.11865813 -10.49453856 64.98498301 -4.359375 67.62109375 C-1.0998129 68.75196223 0.55566113 69.14701135 3.6875 67.62890625 C5.22945603 66.73031808 6.76442097 65.8196491 8.29296875 64.8984375 C15.03954509 61.22767134 23.14087718 61.19069485 30.640625 60.62109375 C30.640625 54.68109375 30.640625 48.74109375 30.640625 42.62109375 C32.950625 42.62109375 35.260625 42.62109375 37.640625 42.62109375 C37.640625 52.52109375 37.640625 62.42109375 37.640625 72.62109375 C28.400625 72.62109375 19.160625 72.62109375 9.640625 72.62109375 C10.135625 76.08609375 10.135625 76.08609375 10.640625 79.62109375 C3.050625 79.62109375 -4.539375 79.62109375 -12.359375 79.62109375 C-12.689375 80.28109375 -13.019375 80.94109375 -13.359375 81.62109375 C-4.779375 81.62109375 3.800625 81.62109375 12.640625 81.62109375 C12.640625 82.28109375 12.640625 82.94109375 12.640625 83.62109375 C3.730625 83.62109375 -5.179375 83.62109375 -14.359375 83.62109375 C-14.359375 83.95109375 -14.359375 84.28109375 -14.359375 84.62109375 C-0.499375 85.11609375 -0.499375 85.11609375 13.640625 85.62109375 C3.740625 85.95109375 -6.159375 86.28109375 -16.359375 86.62109375 C-16.689375 87.28109375 -17.019375 87.94109375 -17.359375 88.62109375 C-6.139375 88.62109375 5.080625 88.62109375 16.640625 88.62109375 C16.640625 89.28109375 16.640625 89.94109375 16.640625 90.62109375 C4.760625 90.95109375 -7.119375 91.28109375 -19.359375 91.62109375 C-19.359375 92.28109375 -19.359375 92.94109375 -19.359375 93.62109375 C-6.819375 93.95109375 5.720625 94.28109375 18.640625 94.62109375 C18.970625 95.28109375 19.300625 95.94109375 19.640625 96.62109375 C5.780625 96.62109375 -8.079375 96.62109375 -22.359375 96.62109375 C-22.689375 97.94109375 -23.019375 99.26109375 -23.359375 100.62109375 C-22.78752472 100.62695999 -22.21567444 100.63282623 -21.62649536 100.63887024 C-15.68930553 100.70266859 -9.75266462 100.78705186 -3.81591797 100.88354492 C-1.59854354 100.91685591 0.61891694 100.94486838 2.83642578 100.9675293 C6.01892877 101.00096194 9.20063865 101.05327157 12.3828125 101.109375 C13.37868378 101.11576492 14.37455505 101.12215485 15.40060425 101.1287384 C16.32140778 101.14853256 17.2422113 101.16832672 18.19091797 101.1887207 C19.0036618 101.19982376 19.81640564 101.21092682 20.65377808 101.22236633 C22.640625 101.62109375 22.640625 101.62109375 24.640625 104.62109375 C24.03864792 104.61887314 23.43667084 104.61665253 22.81645203 104.61436462 C16.50516356 104.59210186 10.19388639 104.57710027 3.88256836 104.56616211 C1.53262885 104.56115846 -0.81730759 104.55435348 -3.16723633 104.5456543 C-6.56071739 104.53341386 -9.954157 104.5278256 -13.34765625 104.5234375 C-14.38457108 104.51827621 -15.4214859 104.51311493 -16.48982239 104.50779724 C-23.16619309 104.50729307 -29.72210612 104.9007601 -36.359375 105.62109375 C-36.359375 105.95109375 -36.359375 106.28109375 -36.359375 106.62109375 C-12.929375 106.62109375 10.500625 106.62109375 34.640625 106.62109375 C38.63369652 94.64254958 38.63369652 94.64254958 42.61972046 82.66169739 C44.87396922 75.88316685 47.1495679 69.11328598 49.4765625 62.359375 C49.89752197 61.12807861 50.31848145 59.89678223 50.75219727 58.62817383 C51.53843807 56.33210772 52.33289154 54.03883354 53.13647461 51.7487793 C53.48460205 50.72695557 53.83272949 49.70513184 54.19140625 48.65234375 C54.65027222 47.33073242 54.65027222 47.33073242 55.1184082 45.98242188 C55.70492387 43.33035104 55.76542682 42.09099635 54.640625 39.62109375 C52.75655331 37.8849092 52.75655331 37.8849092 50.328125 36.37109375 C49.42594238 35.7687793 48.52375977 35.16646484 47.59423828 34.54589844 C46.6195459 33.91071289 45.64485352 33.27552734 44.640625 32.62109375 C42.61638224 31.27334409 40.59295266 29.92437234 38.5703125 28.57421875 C37.56323242 27.90583984 36.55615234 27.23746094 35.51855469 26.54882812 C31.55126051 23.89140067 27.65352294 21.14282889 23.765625 18.37109375 C18.09301424 14.34962398 12.41323593 10.3392024 6.703125 6.37109375 C6.0220166 5.8925293 5.3409082 5.41396484 4.63916016 4.92089844 C-0.57964464 1.22013007 -0.57964464 1.22013007 -5.78125 3.89453125 Z " fill="#1B7A35" transform="translate(72.359375,19.37890625)"/>
<path d="M0 0 C1.79965855 0.21172453 3.59863559 0.43030319 5.39453125 0.671875 C7.2831593 0.90972321 9.17773874 1.10176142 11.07421875 1.265625 C19.15276989 2.14518323 25.0442582 4.29969634 31 10 C31 10.66 31 11.32 31 12 C31.61875 11.41992188 31.61875 11.41992188 32.25 10.828125 C41.12127095 2.82813959 50.09490979 -0.17316495 62 0 C62.8283506 11.68566021 63.12330415 23.28610535 63 35 C61.87722656 35.09796875 60.75445312 35.1959375 59.59765625 35.296875 C49.93930692 36.22842376 42.20924239 37.52717174 34 43 C30.16168359 42.81276505 27.09496565 41.64128751 23.625 40.125 C18.35210065 37.90313707 13.06622696 36.93026192 7.44580078 36.03955078 C3.99624758 35.47400893 1.95994563 34.97329709 -1 33 C-1.25730802 30.37178239 -1.326345 27.9982026 -1.25 25.375 C-1.23904297 24.62677979 -1.22808594 23.87855957 -1.21679688 23.10766602 C-1.06805571 15.39171792 -0.57989945 7.694023 0 0 Z " fill="#F9EF0A" transform="translate(40,45)"/>
<path d="M0 0 C1.98 0 3.96 0 6 0 C6.33 5.28 6.66 10.56 7 16 C8.216875 16.268125 9.43375 16.53625 10.6875 16.8125 C11.50476562 16.99683594 12.32203125 17.18117188 13.1640625 17.37109375 C15.17609764 17.81728887 17.19224458 18.24512084 19.2109375 18.66015625 C24.2855445 19.7425025 28.92644334 20.74275722 33.5 23.25 C36.7204915 25.186339 36.7204915 25.186339 39.5 25 C41.67965518 24.12813793 43.67218784 23.14639808 45.75 22.0625 C53.67090946 17.99100448 61.20914286 17.77744665 70 18 C70 12.06 70 6.12 70 0 C72.31 0 74.62 0 77 0 C77 9.9 77 19.8 77 30 C67.76 30 58.52 30 49 30 C49.495 33.465 49.495 33.465 50 37 C42.74 37 35.48 37 28 37 C28 34.69 28 32.38 28 30 C18.76 30 9.52 30 0 30 C0 20.1 0 10.2 0 0 Z " fill="#020303" transform="translate(33,62)"/>
<path d="M0 0 C2.57328632 1.25106334 4.79426412 2.62623684 7.125 4.28222656 C7.96611328 4.87583984 8.80722656 5.46945313 9.67382812 6.08105469 C10.54072266 6.70044922 11.40761719 7.31984375 12.30078125 7.95800781 C13.14833984 8.55806641 13.99589844 9.158125 14.86914062 9.77636719 C16.57859398 10.98663416 18.28677067 12.19870645 19.99365234 13.41259766 C24.18580366 16.38578233 28.3993228 19.32834739 32.61328125 22.27050781 C31.95328125 22.60050781 31.29328125 22.93050781 30.61328125 23.27050781 C30.61328125 28.88050781 30.61328125 34.49050781 30.61328125 40.27050781 C30.28328125 40.27050781 29.95328125 40.27050781 29.61328125 40.27050781 C29.61328125 34.66050781 29.61328125 29.05050781 29.61328125 23.27050781 C17.08111266 25.22906482 17.08111266 25.22906482 5.61328125 30.27050781 C4.62328125 30.60050781 3.63328125 30.93050781 2.61328125 31.27050781 C1.40446029 33.27067248 1.40446029 33.27067248 0.61328125 35.27050781 C-0.04671875 35.27050781 -0.70671875 35.27050781 -1.38671875 35.27050781 C-3.05338542 33.60384115 -4.72005208 31.93717448 -6.38671875 30.27050781 C-10.45774705 27.32909817 -14.51675565 26.43620293 -19.38671875 25.64550781 C-20.78256988 25.40342293 -22.17840363 25.16123775 -23.57421875 24.91894531 C-24.83234375 24.70496094 -26.09046875 24.49097656 -27.38671875 24.27050781 C-29.03671875 23.94050781 -30.68671875 23.61050781 -32.38671875 23.27050781 C-32.38671875 28.55050781 -32.38671875 33.83050781 -32.38671875 39.27050781 C-32.71671875 39.27050781 -33.04671875 39.27050781 -33.38671875 39.27050781 C-34.48221193 33.24529531 -35.39563083 27.18748766 -33.38671875 21.27050781 C-29.33037504 16.1037257 -23.349075 12.94368729 -17.74707031 9.69140625 C-15.54711636 8.36706491 -13.51733311 6.95367969 -11.47265625 5.40332031 C-10.89281982 4.96640869 -10.3129834 4.52949707 -9.71557617 4.0793457 C-9.17392822 3.6680542 -8.63228027 3.2567627 -8.07421875 2.83300781 C-3.06054024 -0.93544335 -3.06054024 -0.93544335 0 0 Z " fill="#2AB04F" transform="translate(72.38671875,21.7294921875)"/>
<path d="M0 0 C0.99 0 1.98 0 3 0 C3.33 10.56 3.66 21.12 4 32 C6.43375 32.226875 8.8675 32.45375 11.375 32.6875 C17.59003932 33.37020787 22.52862076 34.66458951 27.984375 37.87890625 C29.99646476 38.99803369 31.75260561 39.54950878 34 40 C34 39.34 34 38.68 34 38 C39.93557328 34.65102975 44.74581236 33.27978944 51.5 32.75 C54.305 32.5025 57.11 32.255 60 32 C60 22.1 60 12.2 60 2 C57.03 2 54.06 2 51 2 C55.21629134 -0.10814567 57.39790775 -0.17700355 62 0 C62.8283506 11.68566021 63.12330415 23.28610535 63 35 C61.87722656 35.09796875 60.75445312 35.1959375 59.59765625 35.296875 C49.93930692 36.22842376 42.20924239 37.52717174 34 43 C30.16168359 42.81276505 27.09496565 41.64128751 23.625 40.125 C18.35210065 37.90313707 13.06622696 36.93026192 7.44580078 36.03955078 C3.99624758 35.47400893 1.95994563 34.97329709 -1 33 C-1.25730802 30.37178239 -1.326345 27.9982026 -1.25 25.375 C-1.23904297 24.62677979 -1.22808594 23.87855957 -1.21679688 23.10766602 C-1.06805571 15.39171792 -0.57989945 7.694023 0 0 Z " fill="#BFBEB4" transform="translate(40,45)"/>
<path d="M0 0 C0.391875 0.474375 0.78375 0.94875 1.1875 1.4375 C3.40808374 3.35179633 5.13375709 3.61266988 8 4 C7.67 4.66 7.34 5.32 7 6 C6.34 6 5.68 6 5 6 C5.66 8.97 6.32 11.94 7 15 C8.32 14.67 9.64 14.34 11 14 C9.71034824 15.37562854 8.37310707 16.70766393 7 18 C6.34 18 5.68 18 5 18 C4.34 19.32 3.68 20.64 3 22 C1 22 1 22 -1.4375 19.6875 C-2.283125 18.800625 -3.12875 17.91375 -4 17 C-4.598125 16.401875 -5.19625 15.80375 -5.8125 15.1875 C-6.204375 14.795625 -6.59625 14.40375 -7 14 C-6.01 13.67 -5.02 13.34 -4 13 C-4 11.68 -4 10.36 -4 9 C-3.67 8.01 -3.34 7.02 -3 6 C-4.32 5.67 -5.64 5.34 -7 5 C-7 4.67 -7 4.34 -7 4 C-5.02 4 -3.04 4 -1 4 C-0.67 2.68 -0.34 1.36 0 0 Z " fill="#40B553" transform="translate(70,35)"/>
<path d="M0 0 C15.18 0 30.36 0 46 0 C46.495 1.485 46.495 1.485 47 3 C31.16 3 15.32 3 -1 3 C-0.67 2.01 -0.34 1.02 0 0 Z " fill="#020200" transform="translate(49,120)"/>
<path d="M0 0 C14.52 0 29.04 0 44 0 C44 0.99 44 1.98 44 3 C29.15 3 14.3 3 -1 3 C-0.67 2.01 -0.34 1.02 0 0 Z " fill="#F5EF07" transform="translate(50,116)"/>
<path d="M0 0 C12.87 0 25.74 0 39 0 C39.495 1.485 39.495 1.485 40 3 C26.8 3 13.6 3 0 3 C0 2.01 0 1.02 0 0 Z " fill="#181607" transform="translate(52,113)"/>
<path d="M0 0 C11.22 0 22.44 0 34 0 C34.495 1.485 34.495 1.485 35 3 C23.12 3 11.24 3 -1 3 C-0.67 2.01 -0.34 1.02 0 0 Z " fill="#1B1806" transform="translate(55,108)"/>
<path d="M0 0 C2 2 2 2 2.125 5.125 C2.08375 6.07375 2.0425 7.0225 2 8 C2.99 8 3.98 8 5 8 C5.33 7.34 5.66 6.68 6 6 C6 6.66 6 7.32 6 8 C7.36125 6.9790625 7.36125 6.9790625 8.75 5.9375 C12 4 12 4 14.375 4.25 C14.91125 4.4975 15.4475 4.745 16 5 C16 6.65 16 8.3 16 10 C10.33333333 10 4.66666667 10 -1 10 C-2.67099977 10.31088368 -4.33871537 10.64080332 -6 11 C-6 10.34 -6 9.68 -6 9 C-4.35 8.67 -2.7 8.34 -1 8 C-1.33 6.68 -1.66 5.36 -2 4 C-3.32 3.67 -4.64 3.34 -6 3 C-6 2.34 -6 1.68 -6 1 C-3.525 1.99 -3.525 1.99 -1 3 C-0.67 2.01 -0.34 1.02 0 0 Z " fill="#302D18" transform="translate(65,58)"/>
<path d="M0 0 C0 11.22 0 22.44 0 34 C-1.65 34 -3.3 34 -5 34 C-5 33.34 -5 32.68 -5 32 C-4.01 32 -3.02 32 -2 32 C-2 22.1 -2 12.2 -2 2 C-4.97 2 -7.94 2 -11 2 C-7 0 -7 0 0 0 Z " fill="#C1C5C0" transform="translate(102,45)"/>
<path d="M0 0 C0.99 0 1.98 0 3 0 C3 10.56 3 21.12 3 32 C2.34 32 1.68 32 1 32 C0.12842148 21.30759925 -0.11813543 10.72407184 0 0 Z " fill="#C9C7AD" transform="translate(40,45)"/>
<path d="M0 0 C0.391875 0.474375 0.78375 0.94875 1.1875 1.4375 C3.40808374 3.35179633 5.13375709 3.61266988 8 4 C7.67 4.66 7.34 5.32 7 6 C6.34 6 5.68 6 5 6 C5 7.65 5 9.3 5 11 C3.6078125 10.7215625 3.6078125 10.7215625 2.1875 10.4375 C-1.01343771 9.75876119 -1.01343771 9.75876119 -4 11 C-3.67 9.35 -3.34 7.7 -3 6 C-4.32 5.67 -5.64 5.34 -7 5 C-7 4.67 -7 4.34 -7 4 C-5.02 4 -3.04 4 -1 4 C-0.67 2.68 -0.34 1.36 0 0 Z " fill="#EFF00A" transform="translate(70,35)"/>
<path d="M0 0 C6.93 0 13.86 0 21 0 C21.33 0.99 21.66 1.98 22 3 C14.74 3 7.48 3 0 3 C0 2.01 0 1.02 0 0 Z " fill="#164423" transform="translate(61,96)"/>
<path d="M0 0 C0.33 0 0.66 0 1 0 C1 5.94 1 11.88 1 18 C-2.08211823 18.38976203 -5.16468392 18.76228505 -8.25 19.125 C-9.12269531 19.23714844 -9.99539062 19.34929687 -10.89453125 19.46484375 C-12.16103516 19.60986328 -12.16103516 19.60986328 -13.453125 19.7578125 C-14.22817383 19.8520752 -15.00322266 19.94633789 -15.80175781 20.04345703 C-18.35546289 19.99297286 -19.82233985 19.28837662 -22 18 C-14.50951594 15.39461424 -7.755004 15.4489992 0 17 C0 11.39 0 5.78 0 0 Z " fill="#B4B3A7" transform="translate(102,62)"/>
<path d="M0 0 C0.99 0.495 0.99 0.495 2 1 C2 5.95 2 10.9 2 16 C3.98 16.33 5.96 16.66 8 17 C8 17.66 8 18.32 8 19 C1.125 18.125 1.125 18.125 0 17 C-0.07325168 14.13732433 -0.09238205 11.299281 -0.0625 8.4375 C-0.05798828 7.63119141 -0.05347656 6.82488281 -0.04882812 5.99414062 C-0.03700518 3.99606244 -0.01906914 1.99802217 0 0 Z " fill="#B5B6B5" transform="translate(39,61)"/>
<path d="M0 0 C1.67542976 0.28604898 3.34385343 0.61781233 5 1 C5 1.66 5 2.32 5 3 C3.35 3.33 1.7 3.66 0 4 C0 4.99 0 5.98 0 7 C-2.31 7 -4.62 7 -7 7 C-6.25 4.5625 -6.25 4.5625 -5 2 C-2.9375 1.25 -2.9375 1.25 -1 1 C-0.67 0.67 -0.34 0.34 0 0 Z " fill="#FAF008" transform="translate(59,63)"/>
<path d="M0 0 C2.31 0 4.62 0 7 0 C7 0.66 7 1.32 7 2 C5.35 2.66 3.7 3.32 2 4 C2 5.65 2 7.3 2 9 C3.65 9.33 5.3 9.66 7 10 C6.67 10.66 6.34 11.32 6 12 C4.02 11.34 2.04 10.68 0 10 C-1.50943396 3.01886792 -1.50943396 3.01886792 0 0 Z " fill="#282517" transform="translate(50,62)"/>
<path d="M0 0 C1.98 0.99 1.98 0.99 4 2 C4 2.66 4 3.32 4 4 C4.66 4 5.32 4 6 4 C6 2.68 6 1.36 6 0 C6.66 0 7.32 0 8 0 C7.67 3.3 7.34 6.6 7 10 C5.68 10 4.36 10 3 10 C3.0928125 8.824375 3.0928125 8.824375 3.1875 7.625 C3.125625 6.75875 3.06375 5.8925 3 5 C2.01 4.34 1.02 3.68 0 3 C0 2.01 0 1.02 0 0 Z " fill="#414028" transform="translate(81,59)"/>
<path d="M0 0 C0.66 0 1.32 0 2 0 C3.4783226 2.95664519 3.06032783 5.74229737 3 9 C2.34 9 1.68 9 1 9 C1 8.34 1 7.68 1 7 C0.01 7 -0.98 7 -2 7 C-1.34 4.69 -0.68 2.38 0 0 Z " fill="#A39F2B" transform="translate(89,59)"/>
<path d="M0 0 C2.5625 2.1875 2.5625 2.1875 5 5 C4.8125 7.8125 4.8125 7.8125 4 10 C3.01 9.67 2.02 9.34 1 9 C0.814375 7.824375 0.814375 7.824375 0.625 6.625 C0.20882007 3.85942178 0.20882007 3.85942178 -2 2 C-1.34 2 -0.68 2 0 2 C0 1.34 0 0.68 0 0 Z " fill="#F1E927" transform="translate(80,59)"/>
<path d="M0 0 C1.4370809 -0.05422947 2.87475462 -0.09289723 4.3125 -0.125 C5.11300781 -0.14820313 5.91351563 -0.17140625 6.73828125 -0.1953125 C9 0 9 0 12 2 C11.21625 2.309375 10.4325 2.61875 9.625 2.9375 C7.07669872 3.92875038 7.07669872 3.92875038 5 5 C4.34 4.34 3.68 3.68 3 3 C3.99 3 4.98 3 6 3 C6 2.34 6 1.68 6 1 C4.02 1 2.04 1 0 1 C0 0.67 0 0.34 0 0 Z " fill="#CEC725" transform="translate(51,61)"/>
<path d="M0 0 C1.32 0.33 2.64 0.66 4 1 C4 2.65 4 4.3 4 6 C3.67 5.34 3.34 4.68 3 4 C1.35 4 -0.3 4 -2 4 C-1.34 2.68 -0.68 1.36 0 0 Z " fill="#59592B" transform="translate(77,62)"/>
<path d="M0 0 C0.66 0 1.32 0 2 0 C1.67 1.65 1.34 3.3 1 5 C2.65 5.33 4.3 5.66 6 6 C5.67 6.66 5.34 7.32 5 8 C3.02 7.34 1.04 6.68 -1 6 C-1.042721 4.33388095 -1.04063832 2.66617115 -1 1 C-0.67 0.67 -0.34 0.34 0 0 Z " fill="#C5C428" transform="translate(52,65)"/>
<path d="M0 0 C0.66 0.33 1.32 0.66 2 1 C1.01 1 0.02 1 -1 1 C-0.67 0.67 -0.34 0.34 0 0 Z " fill="#020203" transform="translate(14,56)"/>
<path d="M0 0 C0.66 0.33 1.32 0.66 2 1 C1.01 1 0.02 1 -1 1 C-0.67 0.67 -0.34 0.34 0 0 Z " fill="#030203" transform="translate(34,42)"/>
<path d="M0 0 C0.66 0.33 1.32 0.66 2 1 C1.01 1 0.02 1 -1 1 C-0.67 0.67 -0.34 0.34 0 0 Z " fill="#030303" transform="translate(44,35)"/>
<path d="M0 0 C0.99 0.33 1.98 0.66 3 1 C2.01 1 1.02 1 0 1 C0 0.67 0 0.34 0 0 Z " fill="#080703" transform="translate(82,25)"/>
<path d="" fill="#020801" transform="translate(0,0)"/>
<path d="" fill="#000801" transform="translate(0,0)"/>
<path d="" fill="#010B02" transform="translate(0,0)"/>
<path d="" fill="#010502" transform="translate(0,0)"/>
<path d="" fill="#010703" transform="translate(0,0)"/>
<path d="" fill="#000602" transform="translate(0,0)"/>
<path d="" fill="#010601" transform="translate(0,0)"/>
<path d="" fill="#000601" transform="translate(0,0)"/>
<path d="" fill="#000600" transform="translate(0,0)"/>
<path d="" fill="#010400" transform="translate(0,0)"/>
<path d="" fill="#020702" transform="translate(0,0)"/>
<path d="" fill="#000300" transform="translate(0,0)"/>
<path d="" fill="#000A03" transform="translate(0,0)"/>
<path d="" fill="#010501" transform="translate(0,0)"/>
<path d="" fill="#010303" transform="translate(0,0)"/>
<path d="" fill="#010401" transform="translate(0,0)"/>
<path d="" fill="#000402" transform="translate(0,0)"/>
<path d="" fill="#000201" transform="translate(0,0)"/>
<path d="" fill="#000301" transform="translate(0,0)"/>
<path d="" fill="#030202" transform="translate(0,0)"/>
<path d="" fill="#010302" transform="translate(0,0)"/>
<path d="" fill="#020302" transform="translate(0,0)"/>
<path d="" fill="#000602" transform="translate(0,0)"/>
<path d="" fill="#010400" transform="translate(0,0)"/>
<path d="" fill="#010404" transform="translate(0,0)"/>
<path d="" fill="#010500" transform="translate(0,0)"/>
<path d="" fill="#010502" transform="translate(0,0)"/>
<path d="" fill="#010303" transform="translate(0,0)"/>
<path d="" fill="#000302" transform="translate(0,0)"/>
<path d="" fill="#010301" transform="translate(0,0)"/>
<path d="" fill="#000201" transform="translate(0,0)"/>
<path d="" fill="#000402" transform="translate(0,0)"/>
<path d="" fill="#020302" transform="translate(0,0)"/>
<path d="" fill="#000100" transform="translate(0,0)"/>
<path d="" fill="#030202" transform="translate(0,0)"/>
<path d="" fill="#000401" transform="translate(0,0)"/>
<path d="" fill="#030300" transform="translate(0,0)"/>
<path d="" fill="#010200" transform="translate(0,0)"/>
<path d="" fill="#010100" transform="translate(0,0)"/>
<path d="" fill="#000203" transform="translate(0,0)"/>
<path d="" fill="#010302" transform="translate(0,0)"/>
<path d="" fill="#000200" transform="translate(0,0)"/>
<path d="" fill="#000400" transform="translate(0,0)"/>
<path d="" fill="#030200" transform="translate(0,0)"/>
<path d="" fill="#030102" transform="translate(0,0)"/>
<path d="" fill="#000100" transform="translate(0,0)"/>
<path d="M0 0 C2 1 2 1 2 1 Z " fill="#000101" transform="translate(126,56)"/>
<path d="M0 0 C2 1 2 1 2 1 Z " fill="#000003" transform="translate(17,54)"/>
<path d="M0 0 C2 1 2 1 2 1 Z " fill="#020302" transform="translate(122,53)"/>
<path d="M0 0 C2 1 2 1 2 1 Z " fill="#010102" transform="translate(20,52)"/>
<path d="M0 0 C2 1 2 1 2 1 Z " fill="#010101" transform="translate(119,51)"/>
<path d="M0 0 C2 1 2 1 2 1 Z " fill="#010201" transform="translate(116,49)"/>
<path d="M0 0 C2 1 2 1 2 1 Z " fill="#000301" transform="translate(24,49)"/>
<path d="M0 0 C2 1 2 1 2 1 Z " fill="#030204" transform="translate(27,47)"/>
<path d="M0 0 C2 1 2 1 2 1 Z " fill="#020304" transform="translate(112,46)"/>
<path d="M0 0 C2 1 2 1 2 1 Z " fill="#000202" transform="translate(30,45)"/>
<path d="M0 0 C2 1 2 1 2 1 Z " fill="#010402" transform="translate(109,44)"/>
<path d="M0 0 C2 1 2 1 2 1 Z " fill="#010001" transform="translate(106,42)"/>
<path d="M0 0 C2 1 2 1 2 1 Z " fill="#000D01" transform="translate(103,40)"/>
<path d="M0 0 C2 1 2 1 2 1 Z " fill="#030002" transform="translate(37,40)"/>
<path d="M0 0 C2 1 2 1 2 1 Z " fill="#020201" transform="translate(40,38)"/>
<path d="M0 0 C2 1 2 1 2 1 Z " fill="#050303" transform="translate(99,37)"/>
<path d="M0 0 C2 1 2 1 2 1 Z " fill="#010002" transform="translate(96,35)"/>
<path d="M0 0 C2 1 2 1 2 1 Z " fill="#020203" transform="translate(47,33)"/>
<path d="M0 0 C2 1 2 1 2 1 Z " fill="#040404" transform="translate(92,32)"/>
<path d="M0 0 C2 1 2 1 2 1 Z " fill="#030001" transform="translate(50,31)"/>
<path d="M0 0 C2 1 2 1 2 1 Z " fill="#010101" transform="translate(89,30)"/>
<path d="M0 0 C2 1 2 1 2 1 Z " fill="#010202" transform="translate(53,29)"/>
<path d="M0 0 C2 1 2 1 2 1 Z " fill="#010102" transform="translate(86,28)"/>
<path d="M0 0 C2 1 2 1 2 1 Z " fill="#020001" transform="translate(57,26)"/>
<path d="M0 0 C2 1 2 1 2 1 Z " fill="#020203" transform="translate(60,24)"/>
<path d="M0 0 C2 1 2 1 2 1 Z " fill="#030303" transform="translate(79,23)"/>
<path d="M0 0 C2 1 2 1 2 1 Z " fill="#000400" transform="translate(76,21)"/>
<path d="M0 0 C2 1 2 1 2 1 Z " fill="#010102" transform="translate(64,21)"/>
<path d="M0 0 C2 1 2 1 2 1 Z " fill="#010205" transform="translate(67,19)"/>
<path d="M0 0 C2 1 2 1 2 1 Z " fill="#020301" transform="translate(72,18)"/>
<path d="M0 0 C2 1 2 1 2 1 Z " fill="#010205" transform="translate(70,17)"/>
<path d="" fill="#000000" transform="translate(0,0)"/>
<path d="" fill="#000000" transform="translate(0,0)"/>
<path d="" fill="#000000" transform="translate(0,0)"/>
<path d="" fill="#000000" transform="translate(0,0)"/>
<path d="" fill="#000100" transform="translate(0,0)"/>
<path d="" fill="#000000" transform="translate(0,0)"/>
<path d="" fill="#000002" transform="translate(0,0)"/>
<path d="" fill="#020000" transform="translate(0,0)"/>
<path d="" fill="#000002" transform="translate(0,0)"/>
<path d="" fill="#000002" transform="translate(0,0)"/>
<path d="" fill="#000000" transform="translate(0,0)"/>
<path d="" fill="#000000" transform="translate(0,0)"/>
<path d="" fill="#010301" transform="translate(0,0)"/>
<path d="" fill="#000001" transform="translate(0,0)"/>
<path d="" fill="#010201" transform="translate(0,0)"/>
<path d="" fill="#030104" transform="translate(0,0)"/>
<path d="" fill="#000000" transform="translate(0,0)"/>
<path d="" fill="#000000" transform="translate(0,0)"/>
<path d="" fill="#000100" transform="translate(0,0)"/>
<path d="" fill="#030001" transform="translate(0,0)"/>
<path d="" fill="#000000" transform="translate(0,0)"/>
<path d="" fill="#030003" transform="translate(0,0)"/>
<path d="" fill="#000000" transform="translate(0,0)"/>
<path d="" fill="#010000" transform="translate(0,0)"/>
<path d="" fill="#030101" transform="translate(0,0)"/>
<path d="" fill="#000000" transform="translate(0,0)"/>
<path d="" fill="#020000" transform="translate(0,0)"/>
<path d="" fill="#000000" transform="translate(0,0)"/>
<path d="" fill="#000201" transform="translate(0,0)"/>
<path d="" fill="#020201" transform="translate(0,0)"/>
<path d="" fill="#000000" transform="translate(0,0)"/>
<path d="" fill="#010000" transform="translate(0,0)"/>
<path d="" fill="#000100" transform="translate(0,0)"/>
<path d="" fill="#000000" transform="translate(0,0)"/>
<path d="" fill="#000000" transform="translate(0,0)"/>
<path d="" fill="#000000" transform="translate(0,0)"/>
<path d="" fill="#020000" transform="translate(0,0)"/>
<path d="" fill="#000000" transform="translate(0,0)"/>
<path d="" fill="#010101" transform="translate(0,0)"/>
<path d="" fill="#000000" transform="translate(0,0)"/>
<path d="" fill="#000000" transform="translate(0,0)"/>
<path d="" fill="#000000" transform="translate(0,0)"/>
<path d="" fill="#000000" transform="translate(0,0)"/>
<path d="" fill="#000305" transform="translate(0,0)"/>
<path d="" fill="#010001" transform="translate(0,0)"/>
<path d="" fill="#000000" transform="translate(0,0)"/>
</svg>
