<?xml version="1.0" encoding="UTF-8"?>
<svg version="1.1" xmlns="http://www.w3.org/2000/svg" width="72" height="72">
<path d="M0 0 C5.68945214 3.09094071 10.85065979 6.66610253 16.0625 10.5 C20.98154893 14.10049888 25.89464675 17.6672254 31 21 C28.91972784 29.01079385 26.46629741 36.84989689 23.8125 44.6875 C22.554375 48.420625 21.29625 52.15375 20 56 C7.46 56 -5.08 56 -18 56 C-19.835625 50.8025 -21.67125 45.605 -23.5625 40.25 C-24.43757202 37.79868652 -24.43757202 37.79868652 -25.33032227 35.29785156 C-25.78486211 33.99573743 -26.23861056 32.69334666 -26.69140625 31.390625 C-26.93403198 30.72015137 -27.17665771 30.04967773 -27.42663574 29.35888672 C-28.32979769 26.73488133 -29.03085137 24.50001605 -28.85864258 21.70898438 C-27.76048389 19.52328326 -26.59376083 18.63438312 -24.5703125 17.265625 C-23.86189209 16.77739258 -23.15347168 16.28916016 -22.42358398 15.78613281 C-21.66505127 15.27920898 -20.90651855 14.77228516 -20.125 14.25 C-18.5763803 13.18814522 -17.02820404 12.12564345 -15.48046875 11.0625 C-14.71911621 10.54429688 -13.95776367 10.02609375 -13.17333984 9.4921875 C-10.22042293 7.4647523 -7.32778775 5.3657662 -4.4375 3.25 C-3.56996094 2.61578125 -2.70242187 1.9815625 -1.80859375 1.328125 C-1.21175781 0.88984375 -0.61492188 0.4515625 0 0 Z " fill="#249443" transform="translate(35,9)"/>
<path d="M0 0 C0.33 0 0.66 0 1 0 C1 5.28 1 10.56 1 16 C5.95 16 10.9 16 16 16 C16 16.99 16 17.98 16 19 C19.63 19 23.26 19 27 19 C27 18.01 27 17.02 27 16 C31.62 16 36.24 16 41 16 C41 11.05 41 6.1 41 1 C41.33 1 41.66 1 42 1 C42.06058594 1.89203125 42.12117188 2.7840625 42.18359375 3.703125 C42.26738281 4.87359375 42.35117187 6.0440625 42.4375 7.25 C42.51871094 8.41015625 42.59992187 9.5703125 42.68359375 10.765625 C42.9355392 14.15845566 42.9355392 14.15845566 44 18 C42.35 22.95 40.7 27.9 39 33 C27.12 33 15.24 33 3 33 C-2 19 -2 19 -1 15 C-0.77711499 12.41343327 -0.58685615 9.84047222 -0.4375 7.25 C-0.39431641 6.55261719 -0.35113281 5.85523438 -0.30664062 5.13671875 C-0.20110404 3.42468078 -0.1001009 1.71236439 0 0 Z " fill="#39A03B" transform="translate(15,31)"/>
<path d="M0 0 C6.77386385 0.27259009 11.34724339 1.19053359 17 5 C17.37125 4.54625 17.7425 4.0925 18.125 3.625 C22.36632727 -0.05081697 26.51023805 0 32 0 C32 5.94 32 11.88 32 18 C30.453125 18.103125 28.90625 18.20625 27.3125 18.3125 C23.89800143 18.62945767 22.21605519 18.86742068 19.25 20.6875 C17 22 17 22 14.3125 21.3125 C12.6728125 20.6628125 12.6728125 20.6628125 11 20 C8.3663462 19.4316431 5.72533845 18.94434373 3.07421875 18.46484375 C1 18 1 18 0 17 C-0.07325168 14.13732433 -0.09238205 11.299281 -0.0625 8.4375 C-0.05798828 7.63119141 -0.05347656 6.82488281 -0.04882812 5.99414062 C-0.03700518 3.99606244 -0.01906914 1.99802217 0 0 Z " fill="#F7EE0A" transform="translate(20,23)"/>
<path d="M0 0 C0.99 0 1.98 0 3 0 C3 2.97 3 5.94 3 9 C3.65226562 9.03738281 4.30453125 9.07476562 4.9765625 9.11328125 C9.27307519 9.43647026 12.42541559 9.70728719 16.3125 11.6875 C18.94597114 13.33963724 18.94597114 13.33963724 21.75 12.25 C22.4925 11.8375 23.235 11.425 24 11 C26.52475462 9.73762269 28.31200466 9.90143596 31.125 9.9375 C32.73375 9.958125 34.3425 9.97875 36 10 C36 6.7 36 3.4 36 0 C36.99 0 37.98 0 39 0 C39 5.28 39 10.56 39 16 C34.71 16 30.42 16 26 16 C26 16.99 26 17.98 26 19 C22.37 19 18.74 19 15 19 C15 18.01 15 17.02 15 16 C10.05 16 5.1 16 0 16 C0 10.72 0 5.44 0 0 Z " fill="#060D08" transform="translate(16,31)"/>
<path d="M0 0 C5.97962964 3.24979872 11.46315679 7.05097041 17 11 C14.91972784 19.01079385 12.46629741 26.84989689 9.8125 34.6875 C8.554375 38.420625 7.29625 42.15375 6 46 C-6.54 46 -19.08 46 -32 46 C-33.505625 41.771875 -35.01125 37.54375 -36.5625 33.1875 C-37.04146729 31.8574292 -37.52043457 30.5273584 -38.01391602 29.15698242 C-38.56583618 27.58460815 -38.56583618 27.58460815 -39.12890625 25.98046875 C-39.51119385 24.90692139 -39.89348145 23.83337402 -40.28735352 22.72729492 C-41 20 -41 20 -40 17 C-38.49500991 21.28993333 -36.99685363 25.58222158 -35.5 29.875 C-35.07074219 31.09832031 -34.64148438 32.32164063 -34.19921875 33.58203125 C-33.79316406 34.74863281 -33.38710938 35.91523437 -32.96875 37.1171875 C-32.59169922 38.19597168 -32.21464844 39.27475586 -31.82617188 40.38623047 C-31 43 -31 43 -31 45 C-19.12 45 -7.24 45 5 45 C5.66 42.03 6.32 39.06 7 36 C7.66666667 33 8.33333333 30 9 27 C8.01 27.33 7.02 27.66 6 28 C6 22.72 6 17.44 6 12 C5.01 12 4.02 12 3 12 C2.95101562 11.36191406 2.90203125 10.72382813 2.8515625 10.06640625 C2.77679688 9.24011719 2.70203125 8.41382813 2.625 7.5625 C2.52058594 6.32693359 2.52058594 6.32693359 2.4140625 5.06640625 C2.20910156 4.04353516 2.20910156 4.04353516 2 3 C1.34 2.67 0.68 2.34 0 2 C0 1.34 0 0.68 0 0 Z " fill="#17682E" transform="translate(49,19)"/>
<path d="M0 0 C10.55808656 0.59453303 10.55808656 0.59453303 15 4 C14.67 5.98 14.34 7.96 14 10 C15.98 9.34 17.96 8.68 20 8 C20.33 9.32 20.66 10.64 21 12 C17.37 12 13.74 12 10 12 C10 11.01 10 10.02 10 9 C8.68 9.33 7.36 9.66 6 10 C6 10.99 6 11.98 6 13 C6.99 13.33 7.98 13.66 9 14 C7.68 14 6.36 14 5 14 C4.67 13.01 4.34 12.02 4 11 C3.34 11 2.68 11 2 11 C2 12.98 2 14.96 2 17 C3.7634375 16.938125 3.7634375 16.938125 5.5625 16.875 C8.71147853 16.84728012 10.47383876 17.15794625 13.5625 18.1875 C18.03100771 19.24369273 19.92548467 17.92613452 24 16 C25.98 16 27.96 16 30 16 C30 11.05 30 6.1 30 1 C28.68 0.67 27.36 0.34 26 0 C27.98 0 29.96 0 32 0 C32 5.94 32 11.88 32 18 C30.453125 18.103125 28.90625 18.20625 27.3125 18.3125 C23.89800143 18.62945767 22.21605519 18.86742068 19.25 20.6875 C17 22 17 22 14.3125 21.3125 C12.6728125 20.6628125 12.6728125 20.6628125 11 20 C8.3663462 19.4316431 5.72533845 18.94434373 3.07421875 18.46484375 C1 18 1 18 0 17 C-0.07325168 14.13732433 -0.09238205 11.299281 -0.0625 8.4375 C-0.05798828 7.63119141 -0.05347656 6.82488281 -0.04882812 5.99414062 C-0.03700518 3.99606244 -0.01906914 1.99802217 0 0 Z " fill="#DED518" transform="translate(20,23)"/>
<path d="M0 0 C0.33 0 0.66 0 1 0 C1.06058594 0.89203125 1.12117188 1.7840625 1.18359375 2.703125 C1.30927734 4.45882812 1.30927734 4.45882812 1.4375 6.25 C1.51871094 7.41015625 1.59992187 8.5703125 1.68359375 9.765625 C1.85527053 12.83455121 1.85527053 12.83455121 2.6875 14.96875 C3.2015235 18.30990277 1.75681269 21.18158307 0.5625 24.25 C0.19801758 25.22453125 0.19801758 25.22453125 -0.17382812 26.21875 C-0.77285994 27.81616817 -1.38514321 29.40860594 -2 31 C-3.65 31 -5.3 31 -7 31 C-7.33 29.68 -7.66 28.36 -8 27 C-15.26 27 -22.52 27 -30 27 C-30 26.67 -30 26.34 -30 26 C-23.4 26 -16.8 26 -10 26 C-11.32 23.36 -12.64 20.72 -14 18 C-14 17.01 -14 16.02 -14 15 C-9.38 15 -4.76 15 0 15 C0 10.05 0 5.1 0 0 Z " fill="#21A146" transform="translate(56,32)"/>
<path d="M0 0 C0 2.64 0 5.28 0 8 C-1.32 8 -2.64 8 -4 8 C-4 13.28 -4 18.56 -4 24 C-4.99 24 -5.98 24 -7 24 C-7.99 20.37 -8.98 16.74 -10 13 C-10.66 13 -11.32 13 -12 13 C-12.33 11.02 -12.66 9.04 -13 7 C-11.75627811 6.01287122 -10.50472782 5.03560095 -9.25 4.0625 C-8.55390625 3.51722656 -7.8578125 2.97195312 -7.140625 2.41015625 C-4.8451343 0.89798081 -2.78289063 0 0 0 Z " fill="#22A94A" transform="translate(19,23)"/>
<path d="M0 0 C4.29 0 8.58 0 13 0 C16 5.75 16 5.75 16 8 C9.73 8 3.46 8 -3 8 C-1 2 -1 2 0 0 Z " fill="#76710D" transform="translate(30,50)"/>
<path d="M0 0 C0.33 0 0.66 0 1 0 C1.33 5.28 1.66 10.56 2 16 C3.7325 16.309375 5.465 16.61875 7.25 16.9375 C12.7185261 17.91402252 12.7185261 17.91402252 15.1484375 18.65625 C18.34015722 19.24880556 21.09045989 17.25411212 24 16 C25.98 16 27.96 16 30 16 C30 11.05 30 6.1 30 1 C28.68 0.67 27.36 0.34 26 0 C27.98 0 29.96 0 32 0 C32 5.94 32 11.88 32 18 C30.453125 18.103125 28.90625 18.20625 27.3125 18.3125 C23.89800143 18.62945767 22.21605519 18.86742068 19.25 20.6875 C17 22 17 22 14.3125 21.3125 C12.6728125 20.6628125 12.6728125 20.6628125 11 20 C8.3663462 19.4316431 5.72533845 18.94434373 3.07421875 18.46484375 C1 18 1 18 0 17 C-0.07325168 14.13732433 -0.09238205 11.299281 -0.0625 8.4375 C-0.05798828 7.63119141 -0.05347656 6.82488281 -0.04882812 5.99414062 C-0.03700518 3.99606244 -0.01906914 1.99802217 0 0 Z " fill="#B3B8A5" transform="translate(20,23)"/>
<path d="M0 0 C1.32 0 2.64 0 4 0 C4 0.99 4 1.98 4 3 C5.98 2.34 7.96 1.68 10 1 C10.33 2.32 10.66 3.64 11 5 C7.37 5 3.74 5 0 5 C0 3.33333333 0 1.66666667 0 0 Z " fill="#6A671F" transform="translate(30,30)"/>
<path d="M0 0 C-0.33 1.32 -0.66 2.64 -1 4 C-2.65 4 -4.3 4 -6 4 C-6.33 2.68 -6.66 1.36 -7 0 C-3.86650268 -1.04449911 -3.01031744 -0.93423645 0 0 Z " fill="#C7E314" transform="translate(39,19)"/>
<path d="M0 0 C0 0.99 0 1.98 0 3 C-1.32 3.33 -2.64 3.66 -4 4 C-4.33 5.98 -4.66 7.96 -5 10 C-7 7 -7 7 -6.875 5 C-5.53102152 1.92804918 -3.43085272 0 0 0 Z " fill="#0E3619" transform="translate(13,26)"/>
<path d="M0 0 C-0.99 0.495 -0.99 0.495 -2 1 C-2.33 1.99 -2.66 2.98 -3 4 C-4.65 2.68 -6.3 1.36 -8 0 C-5.13822943 -1.43088528 -3.06624227 -0.59991697 0 0 Z " fill="#40B555" transform="translate(40,25)"/>
<path d="M0 0 C0.66 0 1.32 0 2 0 C2.66 0.99 3.32 1.98 4 3 C4.99 3.66 5.98 4.32 7 5 C4.69 5 2.38 5 0 5 C0 3.35 0 1.7 0 0 Z " fill="#FEF502" transform="translate(22,34)"/>
<path d="M0 0 C1.65 0 3.3 0 5 0 C5.33 1.32 5.66 2.64 6 4 C4.35 4.33 2.7 4.66 1 5 C1.33 4.01 1.66 3.02 2 2 C1.34 2 0.68 2 0 2 C0 1.34 0 0.68 0 0 Z " fill="#716D2B" transform="translate(41,30)"/>
<path d="" fill="#4C625C" transform="translate(0,0)"/>
<path d="" fill="#43645C" transform="translate(0,0)"/>
<path d="" fill="#326355" transform="translate(0,0)"/>
<path d="" fill="#42605A" transform="translate(0,0)"/>
<path d="" fill="#2A5E43" transform="translate(0,0)"/>
<path d="" fill="#1A5C2D" transform="translate(0,0)"/>
<path d="" fill="#164A23" transform="translate(0,0)"/>
<path d="" fill="#185528" transform="translate(0,0)"/>
<path d="" fill="#144320" transform="translate(0,0)"/>
<path d="" fill="#185025" transform="translate(0,0)"/>
<path d="" fill="#13401E" transform="translate(0,0)"/>
<path d="" fill="#123F1F" transform="translate(0,0)"/>
<path d="" fill="#123C1A" transform="translate(0,0)"/>
<path d="" fill="#11371B" transform="translate(0,0)"/>
<path d="" fill="#0D2D17" transform="translate(0,0)"/>
<path d="" fill="#0E2A14" transform="translate(0,0)"/>
<path d="" fill="#0D2A15" transform="translate(0,0)"/>
<path d="" fill="#0C2813" transform="translate(0,0)"/>
<path d="" fill="#0A1F10" transform="translate(0,0)"/>
<path d="" fill="#071B0C" transform="translate(0,0)"/>
<path d="" fill="#051107" transform="translate(0,0)"/>
<path d="M0 0 C2 1 2 1 2 1 Z " fill="#102E19" transform="translate(63,27)"/>
<path d="M0 0 C2 1 2 1 2 1 Z " fill="#0B210F" transform="translate(8,26)"/>
<path d="M0 0 C2 1 2 1 2 1 Z " fill="#3D7F5F" transform="translate(60,25)"/>
<path d="M0 0 C2 1 2 1 2 1 Z " fill="#1B4C28" transform="translate(11,24)"/>
<path d="M0 0 C2 1 2 1 2 1 Z " fill="#0B1F10" transform="translate(56,22)"/>
<path d="M0 0 C2 1 2 1 2 1 Z " fill="#091A0D" transform="translate(15,21)"/>
<path d="M0 0 C2 1 2 1 2 1 Z " fill="#1A5329" transform="translate(53,20)"/>
<path d="M0 0 C2 1 2 1 2 1 Z " fill="#0E3319" transform="translate(18,19)"/>
<path d="M0 0 C2 1 2 1 2 1 Z " fill="#08150A" transform="translate(49,17)"/>
<path d="M0 0 C2 1 2 1 2 1 Z " fill="#347F52" transform="translate(21,17)"/>
<path d="M0 0 C2 1 2 1 2 1 Z " fill="#10381C" transform="translate(46,15)"/>
<path d="M0 0 C2 1 2 1 2 1 Z " fill="#0B2110" transform="translate(25,14)"/>
<path d="M0 0 C2 1 2 1 2 1 Z " fill="#387F5F" transform="translate(43,13)"/>
<path d="M0 0 C2 1 2 1 2 1 Z " fill="#1A552A" transform="translate(28,12)"/>
<path d="M0 0 C2 1 2 1 2 1 Z " fill="#0C2413" transform="translate(39,10)"/>
<path d="M0 0 C2 1 2 1 2 1 Z " fill="#0A1D0D" transform="translate(32,9)"/>
<path d="M0 0 C2 1 2 1 2 1 Z " fill="#010303" transform="translate(35,7)"/>
<path d="" fill="#08130A" transform="translate(0,0)"/>
<path d="" fill="#000000" transform="translate(0,0)"/>
<path d="" fill="#122317" transform="translate(0,0)"/>
<path d="" fill="#000000" transform="translate(0,0)"/>
<path d="" fill="#090C0A" transform="translate(0,0)"/>
<path d="" fill="#000000" transform="translate(0,0)"/>
<path d="" fill="#050A06" transform="translate(0,0)"/>
<path d="" fill="#020200" transform="translate(0,0)"/>
<path d="" fill="#0A1C10" transform="translate(0,0)"/>
<path d="" fill="#000000" transform="translate(0,0)"/>
<path d="" fill="#081509" transform="translate(0,0)"/>
<path d="" fill="#000000" transform="translate(0,0)"/>
<path d="" fill="#030401" transform="translate(0,0)"/>
<path d="" fill="#020000" transform="translate(0,0)"/>
<path d="" fill="#071108" transform="translate(0,0)"/>
<path d="" fill="#000000" transform="translate(0,0)"/>
<path d="" fill="#050B05" transform="translate(0,0)"/>
<path d="" fill="#020000" transform="translate(0,0)"/>
<path d="" fill="#0C2411" transform="translate(0,0)"/>
<path d="" fill="#000000" transform="translate(0,0)"/>
<path d="" fill="#050D07" transform="translate(0,0)"/>
<path d="" fill="#030301" transform="translate(0,0)"/>
<path d="" fill="#0C1D10" transform="translate(0,0)"/>
<path d="" fill="#000000" transform="translate(0,0)"/>
<path d="" fill="#08180A" transform="translate(0,0)"/>
<path d="" fill="#000000" transform="translate(0,0)"/>
<path d="" fill="#020601" transform="translate(0,0)"/>
<path d="" fill="#000000" transform="translate(0,0)"/>
<path d="" fill="#030403" transform="translate(0,0)"/>
</svg>
