<?xml version="1.0" encoding="UTF-8"?>
<svg version="1.1" xmlns="http://www.w3.org/2000/svg" width="192" height="192">
<path d="M0 0 C4.33240715 0.60805714 7.30296257 3.1473158 10.78125 5.625 C12.89780796 7.10403917 12.89780796 7.10403917 15.21875 7.5 C16.10046875 7.7475 16.10046875 7.7475 17 8 C17.495 9.485 17.495 9.485 18 11 C19.61471382 12.41910043 19.61471382 12.41910043 21.65625 13.71484375 C22.42275879 14.22990479 23.18926758 14.74496582 23.97900391 15.27563477 C24.81093262 15.82405029 25.64286133 16.37246582 26.5 16.9375 C28.24813814 18.110874 29.99551953 19.28537615 31.7421875 20.4609375 C32.62616211 21.05358398 33.51013672 21.64623047 34.42089844 22.25683594 C38.19305297 24.80636106 41.91244698 27.42723469 45.625 30.0625 C46.31142578 30.54855713 46.99785156 31.03461426 47.70507812 31.53540039 C49.80420603 33.0224466 51.90217697 34.51111367 54 36 C66.88600905 45.16585602 66.88600905 45.16585602 80 54 C77.72967705 64.04077622 74.559135 73.69727693 71.2734375 83.4375 C70.7191733 85.09213738 70.16535855 86.74692536 69.61196899 88.40185547 C68.16630172 92.72187893 66.71548237 97.0401527 65.26324463 101.35797119 C62.93106269 108.29490237 60.60671469 115.23446161 58.28261185 122.17410278 C57.47272107 124.58985186 56.66053696 127.00482032 55.84799194 129.41967773 C55.35222531 130.89695612 54.8565054 132.37425019 54.36083984 133.8515625 C54.13537979 134.51963425 53.90991974 135.18770599 53.67762756 135.87602234 C52.6625788 138.90667745 51.77622478 141.89510089 51 145 C18.33 145 -14.34 145 -48 145 C-52.62 130.81 -57.24 116.62 -62 102 C-64.79092426 93.43725675 -67.58214356 84.87461273 -70.375 76.3125 C-71.03386406 74.29232093 -71.69271817 72.27213862 -72.3515625 70.25195312 C-73.90092944 65.50126547 -75.45042222 60.75061889 -77 56 C-73.39989484 52.33870864 -69.72127687 49.12663123 -65.5625 46.125 C-64.92707275 45.66230713 -64.29164551 45.19961426 -63.63696289 44.72290039 C-56.87093379 39.83681228 -49.9591877 35.16364699 -43.05151367 30.48120117 C-36.85841706 26.28067073 -30.73742118 22.00151137 -24.66796875 17.625 C-18.98571119 13.53858975 -13.22958978 9.5556368 -7.48583984 5.55639648 C-6.65906738 4.97962158 -5.83229492 4.40284668 -4.98046875 3.80859375 C-3.86514771 3.03213501 -3.86514771 3.03213501 -2.72729492 2.23999023 C-1.05911329 1.11313162 -1.05911329 1.11313162 0 0 Z " fill="#3CAC42" transform="translate(94,27)"/>
<path d="M0 0 C3.16501619 0.48016271 5.21267989 1.65950991 7.75 3.5625 C8.36359375 4.01753906 8.9771875 4.47257812 9.609375 4.94140625 C10.29773438 5.46541016 10.29773438 5.46541016 11 6 C10.34 6.66 9.68 7.32 9 8 C6.36 6.35 3.72 4.7 1 3 C-0.76537109 4.2375 -0.76537109 4.2375 -2.56640625 5.5 C-4.23175746 6.66668576 -5.89712326 7.83335069 -7.5625 9 C-8.44478271 9.6185083 -9.32706543 10.2370166 -10.23608398 10.87426758 C-15.26132415 14.39399864 -20.29561658 17.89988763 -25.34375 21.38671875 C-26.38072021 22.10408203 -27.41769043 22.82144531 -28.48608398 23.56054688 C-30.51247622 24.96154117 -32.54059382 26.36004369 -34.57055664 27.75585938 C-35.49731201 28.39716797 -36.42406738 29.03847656 -37.37890625 29.69921875 C-38.1994751 30.26471436 -39.02004395 30.83020996 -39.86547852 31.4128418 C-41.76657486 32.82643294 -43.38416869 34.2740798 -45 36 C-43.68 35.34 -42.36 34.68 -41 34 C-41 48.85 -41 63.7 -41 79 C-38.69 79.33 -36.38 79.66 -34 80 C-22.3338017 81.99389022 -11.36353905 84.57047752 -0.82421875 90.15234375 C1.9022072 91.4192269 3.15470141 90.96998816 6 90 C7.051875 89.236875 8.10375 88.47375 9.1875 87.6875 C18.8079235 81.3894998 32.8572941 80.57142082 44 80 C44 72.41 44 64.82 44 57 C46.97 57 49.94 57 53 57 C53 70.53 53 84.06 53 98 C41.12 98 29.24 98 17 98 C17 99.98 17 101.96 17 104 C7.76 104.33 -1.48 104.66 -11 105 C-11.33 105.66 -11.66 106.32 -12 107 C-12.66 107 -13.32 107 -14 107 C-14.144375 107.61875 -14.28875 108.2375 -14.4375 108.875 C-15 111 -15 111 -16 113 C-3.46 113 9.08 113 22 113 C22.33 113.99 22.66 114.98 23 116 C9.14 116.33 -4.72 116.66 -19 117 C-19.33 117.66 -19.66 118.32 -20 119 C-5.15 119 9.7 119 25 119 C25.33 119.99 25.66 120.98 26 122 C9.83 122 -6.34 122 -23 122 C-23 122.99 -23 123.98 -23 125 C-6.17 125 10.66 125 28 125 C28.66 126.32 29.32 127.64 30 129 C29.30731018 128.99920441 28.61462036 128.99840881 27.90093994 128.99758911 C20.6981535 128.99515339 13.49644716 129.03427564 6.29394531 129.09765625 C3.60498116 129.11918421 0.91657983 129.12592452 -1.77246094 129.12011719 C-5.63550557 129.11726623 -9.49659993 129.15252273 -13.359375 129.1953125 C-15.16580475 129.1816716 -15.16580475 129.1816716 -17.00872803 129.16775513 C-23.60720824 129.09969308 -23.60720824 129.09969308 -28.72753906 132.80029297 C-29.69872265 135.24241347 -30.40700541 137.46141674 -31 140 C-29.85393028 139.99666908 -29.85393028 139.99666908 -28.68470764 139.99327087 C-21.40551258 139.97304798 -14.12633156 139.9579155 -6.84711552 139.94818783 C-3.10680483 139.94301829 0.63348221 139.93603163 4.3737793 139.92456055 C36.18189156 139.82946594 36.18189156 139.82946594 50 141 C50.21914062 139.85015625 50.43828125 138.7003125 50.6640625 137.515625 C52.14501302 130.8733164 54.40831915 124.47983234 56.59503174 118.04516602 C57.94247453 114.0801266 59.27573086 110.11032282 60.609375 106.140625 C61.02462936 104.90602539 61.02462936 104.90602539 61.44827271 103.64648438 C63.46830849 97.62576856 65.44186607 91.59101225 67.390625 85.546875 C67.66367462 84.70034363 67.93672424 83.85381226 68.2180481 82.98162842 C69.28325557 79.6756472 70.34703832 76.36923113 71.40496826 73.06091309 C72.13459097 70.77935634 72.8678609 68.49899765 73.6015625 66.21875 C73.81564758 65.54430847 74.02973267 64.86986694 74.25030518 64.17498779 C75.28232515 60.97571556 76.38038361 57.95084618 78 55 C77.484375 54.76796875 76.96875 54.5359375 76.4375 54.296875 C73.11845993 52.53097548 70.08133873 50.39368895 67 48.25 C66.30793457 47.77119385 65.61586914 47.2923877 64.90283203 46.79907227 C62.59933143 45.20302811 60.29925421 43.60215488 58 42 C57.18241211 41.43071777 56.36482422 40.86143555 55.52246094 40.27490234 C44.96567433 32.91856185 34.4492984 25.50827071 24 18 C24.99 17.67 25.98 17.34 27 17 C29.6015404 18.60023914 31.99309002 20.24538941 34.4375 22.0625 C35.97605988 23.17777705 37.5151441 24.29233101 39.0546875 25.40625 C39.86260742 25.99535156 40.67052734 26.58445312 41.50292969 27.19140625 C45.65449699 30.19832946 49.85902842 33.12879753 54.0625 36.0625 C54.89354248 36.64410889 55.72458496 37.22571777 56.58081055 37.82495117 C64.35576678 43.26248767 72.17030037 48.641686 80 54 C77.72967705 64.04077622 74.559135 73.69727693 71.2734375 83.4375 C70.7191733 85.09213738 70.16535855 86.74692536 69.61196899 88.40185547 C68.16630172 92.72187893 66.71548237 97.0401527 65.26324463 101.35797119 C62.93106269 108.29490237 60.60671469 115.23446161 58.28261185 122.17410278 C57.47272107 124.58985186 56.66053696 127.00482032 55.84799194 129.41967773 C55.35222531 130.89695612 54.8565054 132.37425019 54.36083984 133.8515625 C54.13537979 134.51963425 53.90991974 135.18770599 53.67762756 135.87602234 C52.6625788 138.90667745 51.77622478 141.89510089 51 145 C18.33 145 -14.34 145 -48 145 C-52.62 130.81 -57.24 116.62 -62 102 C-64.79092426 93.43725675 -67.58214356 84.87461273 -70.375 76.3125 C-71.03386406 74.29232093 -71.69271817 72.27213862 -72.3515625 70.25195312 C-73.90092944 65.50126547 -75.45042222 60.75061889 -77 56 C-73.39989484 52.33870864 -69.72127687 49.12663123 -65.5625 46.125 C-64.92707275 45.66230713 -64.29164551 45.19961426 -63.63696289 44.72290039 C-56.87093379 39.83681228 -49.9591877 35.16364699 -43.05151367 30.48120117 C-36.85841706 26.28067073 -30.73742118 22.00151137 -24.66796875 17.625 C-18.98571119 13.53858975 -13.22958978 9.5556368 -7.48583984 5.55639648 C-6.65906738 4.97962158 -5.83229492 4.40284668 -4.98046875 3.80859375 C-3.86514771 3.03213501 -3.86514771 3.03213501 -2.72729492 2.23999023 C-1.05911329 1.11313162 -1.05911329 1.11313162 0 0 Z " fill="#24AE4C" transform="translate(94,27)"/>
<path d="M0 0 C0.66 0 1.32 0 2 0 C2.495 2.475 2.495 2.475 3 5 C5.64 5 8.28 5 11 5 C11 5.66 11 6.32 11 7 C9.35 7.33 7.7 7.66 6 8 C6.495 11.465 6.495 11.465 7 15 C6.34 15.33 5.68 15.66 5 16 C4.27306096 17.97888961 3.60183749 19.97954558 3 22 C6.37606519 22.39718414 7.6704839 22.25045346 10.42578125 20.15625 C15.07906273 16.92504345 20.59620567 16.29526855 26.0625 15.25 C27.13822266 15.02957031 28.21394531 14.80914062 29.32226562 14.58203125 C34.04322573 13.63959532 38.1523443 13 43 13 C43 28.18 43 43.36 43 59 C30.625 61.1875 30.625 61.1875 26.78759766 61.84057617 C18.18997875 63.42986558 11.26462284 66.15691811 4 71 C0.30806049 70.6434952 -2.53495501 69.35466068 -5.8125 67.6875 C-12.95270834 64.35284012 -20.34919744 62.73199987 -28 61 C-34.435 59.515 -34.435 59.515 -41 58 C-41 43.15 -41 28.3 -41 13 C-37.63471374 11.87823791 -36.51217437 12.1454842 -33.140625 12.9609375 C-32.18929687 13.18523438 -31.23796875 13.40953125 -30.2578125 13.640625 C-29.26523438 13.88296875 -28.27265625 14.1253125 -27.25 14.375 C-19.65205974 16.25372526 -19.65205974 16.25372526 -11.94921875 17.59765625 C-9.17471304 17.97616498 -7.3812944 18.57122336 -5 20 C-4.34 18.35 -3.68 16.7 -3 15 C-3.99 15 -4.98 15 -6 15 C-5.67 13.02 -5.34 11.04 -5 9 C-6.32 8.34 -7.64 7.68 -9 7 C-9 6.34 -9 5.68 -9 5 C-7.88625 4.9175 -6.7725 4.835 -5.625 4.75 C-1.94246056 4.42126213 -1.94246056 4.42126213 -0.5625 1.9375 C-0.2840625 0.9784375 -0.2840625 0.9784375 0 0 Z " fill="#F8ED0A" transform="translate(94,48)"/>
<path d="M0 0 C2.97 0 5.94 0 9 0 C9 7.59 9 15.18 9 23 C11.31 23.33 13.62 23.66 16 24 C27.6661983 25.99389022 38.63646095 28.57047752 49.17578125 34.15234375 C51.9022072 35.4192269 53.15470141 34.96998816 56 34 C57.051875 33.236875 58.10375 32.47375 59.1875 31.6875 C68.8079235 25.3894998 82.8572941 24.57142082 94 24 C94 16.41 94 8.82 94 1 C96.97 1 99.94 1 103 1 C103 14.53 103 28.06 103 42 C91.12 42 79.24 42 67 42 C67 43.65 67 45.3 67 47 C57.43 47 47.86 47 38 47 C38 45.35 38 43.7 38 42 C25.46 42 12.92 42 0 42 C0 28.14 0 14.28 0 0 Z " fill="#030604" transform="translate(44,83)"/>
<path d="M0 0 C0.87011719 0.54140625 0.87011719 0.54140625 1.7578125 1.09375 C6.31169481 3.79902662 9.52784676 5.70155811 15 5 C15.24492188 5.60328125 15.48984375 6.2065625 15.7421875 6.828125 C17.22565933 9.38964779 18.58473931 10.27500992 21.125 11.75 C22.21167969 12.39195313 22.21167969 12.39195313 23.3203125 13.046875 C23.87460938 13.36140625 24.42890625 13.6759375 25 14 C24.67 14.66 24.34 15.32 24 16 C24.89307861 16.61258667 24.89307861 16.61258667 25.80419922 17.23754883 C28.49839067 19.09023292 31.18672368 20.95124457 33.875 22.8125 C35.28072266 23.77639648 35.28072266 23.77639648 36.71484375 24.75976562 C37.61074219 25.38173828 38.50664062 26.00371094 39.4296875 26.64453125 C40.25710449 27.21534424 41.08452148 27.78615723 41.93701172 28.37426758 C44 30 44 30 46 33 C45.34 33 44.68 33 44 33 C43.67 47.85 43.34 62.7 43 78 C42.67 78 42.34 78 42 78 C42 62.82 42 47.64 42 32 C36.06 33.32 30.12 34.64 24 36 C21.958125 36.33 19.91625 36.66 17.8125 37 C14.46748166 37.56347935 12.02207415 38.35834071 9.125 40.125 C5.97510662 42.01493603 4.57613123 42.43347045 1 42 C1.66666667 39.33333333 2.33333333 36.66666667 3 34 C3.99 34 4.98 34 6 34 C5.505 30.535 5.505 30.535 5 27 C6.65 26.67 8.3 26.34 10 26 C10 25.34 10 24.68 10 24 C7.36 24 4.72 24 2 24 C1.67 22.35 1.34 20.7 1 19 C0.34 19 -0.32 19 -1 19 C-1.66 20.65 -2.32 22.3 -3 24 C-5.31 24 -7.62 24 -10 24 C-8.74458443 26.51083114 -7.49936512 26.87125446 -5 28 C-5.66 29.98 -6.32 31.96 -7 34 C-6.01 34 -5.02 34 -4 34 C-4.33 35.32 -4.66 36.64 -5 38 C-6.9375 38.5625 -6.9375 38.5625 -9 39 C-9.33 38.67 -9.66 38.34 -10 38 C-11.35220497 37.6579498 -12.71722992 37.36616354 -14.0859375 37.09765625 C-14.92954834 36.93015869 -15.77315918 36.76266113 -16.64233398 36.59008789 C-17.99500366 36.32893188 -17.99500366 36.32893188 -19.375 36.0625 C-20.28515869 35.8864624 -21.19531738 35.7104248 -22.13305664 35.52905273 C-23.93992969 35.17992265 -25.74697408 34.83167796 -27.55419922 34.484375 C-29.57529225 34.08411062 -31.5879247 33.64138074 -33.59765625 33.1875 C-38.98129575 31.92120305 -38.98129575 31.92120305 -44.1875 33.375 C-44.785625 33.91125 -45.38375 34.4475 -46 35 C-46 34.01 -46 33.02 -46 32 C-44.20605469 30.4128418 -44.20605469 30.4128418 -41.671875 28.69921875 C-40.73569336 28.05807129 -39.79951172 27.41692383 -38.83496094 26.75634766 C-37.81692383 26.07362793 -36.79888672 25.3909082 -35.75 24.6875 C-33.64553446 23.25174006 -31.54137383 21.81553311 -29.4375 20.37890625 C-27.83068359 19.28860107 -27.83068359 19.28860107 -26.19140625 18.17626953 C-21.34535006 14.87166848 -16.54764489 11.49931978 -11.75 8.125 C-10.1201529 6.9812559 -8.48997368 5.83798484 -6.859375 4.6953125 C-6.18358398 4.22109863 -5.50779297 3.74688477 -4.81152344 3.25830078 C-3.22066294 2.1532745 -1.61167094 1.07444729 0 0 Z " fill="#28AE4E" transform="translate(95,29)"/>
<path d="M0 0 C3.16501619 0.48016271 5.21267989 1.65950991 7.75 3.5625 C8.36359375 4.01753906 8.9771875 4.47257812 9.609375 4.94140625 C10.29773438 5.46541016 10.29773438 5.46541016 11 6 C10.34 6.66 9.68 7.32 9 8 C6.36 6.35 3.72 4.7 1 3 C-0.76537109 4.2375 -0.76537109 4.2375 -2.56640625 5.5 C-11.92800544 12.05918028 -21.29991952 18.60305234 -30.6875 25.125 C-37.49320231 29.85521248 -44.29116385 34.59569283 -51.0625 39.375 C-51.73764648 39.85114746 -52.41279297 40.32729492 -53.10839844 40.81787109 C-56.44905163 43.1789158 -59.77585033 45.55720259 -63.0859375 47.9609375 C-63.73554443 48.43096191 -64.38515137 48.90098633 -65.05444336 49.38525391 C-66.27706501 50.27134946 -67.49681276 51.16142902 -68.71313477 52.05615234 C-72.77754772 55 -72.77754772 55 -75 55 C-74.46886597 56.38010254 -74.46886597 56.38010254 -73.92700195 57.78808594 C-69.70758534 68.84365221 -65.90268388 80.01642292 -62.1875 91.25 C-61.57413034 93.09833197 -60.96068553 94.946639 -60.34716797 96.79492188 C-56.73699932 107.68479853 -53.15401436 118.58354346 -49.625 129.5 C-49.25012451 130.65532227 -48.87524902 131.81064453 -48.48901367 133.00097656 C-48.15490479 134.0422168 -47.8207959 135.08345703 -47.4765625 136.15625 C-47.18861816 137.05150391 -46.90067383 137.94675781 -46.60400391 138.86914062 C-46 141 -46 141 -46 143 C-14.65 143 16.7 143 49 143 C49.99 139.37 50.98 135.74 52 132 C52.8071033 129.44251994 53.63747521 126.89221089 54.49609375 124.3515625 C54.72584396 123.66778534 54.95559418 122.98400818 55.19230652 122.2795105 C55.68375383 120.81734047 56.17650011 119.35560646 56.67047119 117.89428711 C58.00189239 113.9552213 59.32376313 110.0129611 60.64453125 106.0703125 C60.91827576 105.25342957 61.19202026 104.43654663 61.47406006 103.59490967 C63.48023962 97.59275631 65.44424461 91.57773777 67.38671875 85.5546875 C67.66001511 84.70766266 67.93331146 83.86063782 68.21488953 82.98794556 C69.53662443 78.88752217 70.85353451 74.78560099 72.16577148 70.68212891 C72.64429279 69.19431159 73.12288598 67.70651739 73.6015625 66.21875 C73.81564255 65.54431854 74.0297226 64.86988708 74.25028992 64.17501831 C75.28232145 60.97573859 76.38037822 57.950856 78 55 C77.484375 54.76796875 76.96875 54.5359375 76.4375 54.296875 C73.11845993 52.53097548 70.08133873 50.39368895 67 48.25 C66.30793457 47.77119385 65.61586914 47.2923877 64.90283203 46.79907227 C62.59933143 45.20302811 60.29925421 43.60215488 58 42 C57.18241211 41.43071777 56.36482422 40.86143555 55.52246094 40.27490234 C44.96567433 32.91856185 34.4492984 25.50827071 24 18 C24.99 17.67 25.98 17.34 27 17 C29.6015404 18.60023914 31.99309002 20.24538941 34.4375 22.0625 C35.97605988 23.17777705 37.5151441 24.29233101 39.0546875 25.40625 C39.86260742 25.99535156 40.67052734 26.58445312 41.50292969 27.19140625 C45.65449699 30.19832946 49.85902842 33.12879753 54.0625 36.0625 C54.89354248 36.64410889 55.72458496 37.22571777 56.58081055 37.82495117 C64.35576678 43.26248767 72.17030037 48.641686 80 54 C77.72967705 64.04077622 74.559135 73.69727693 71.2734375 83.4375 C70.7191733 85.09213738 70.16535855 86.74692536 69.61196899 88.40185547 C68.16630172 92.72187893 66.71548237 97.0401527 65.26324463 101.35797119 C62.93106269 108.29490237 60.60671469 115.23446161 58.28261185 122.17410278 C57.47272107 124.58985186 56.66053696 127.00482032 55.84799194 129.41967773 C55.35222531 130.89695612 54.8565054 132.37425019 54.36083984 133.8515625 C54.13537979 134.51963425 53.90991974 135.18770599 53.67762756 135.87602234 C52.6625788 138.90667745 51.77622478 141.89510089 51 145 C18.33 145 -14.34 145 -48 145 C-52.62 130.81 -57.24 116.62 -62 102 C-64.79092426 93.43725675 -67.58214356 84.87461273 -70.375 76.3125 C-71.03386406 74.29232093 -71.69271817 72.27213862 -72.3515625 70.25195312 C-73.90092944 65.50126547 -75.45042222 60.75061889 -77 56 C-73.39989484 52.33870864 -69.72127687 49.12663123 -65.5625 46.125 C-64.92707275 45.66230713 -64.29164551 45.19961426 -63.63696289 44.72290039 C-56.87093379 39.83681228 -49.9591877 35.16364699 -43.05151367 30.48120117 C-36.85841706 26.28067073 -30.73742118 22.00151137 -24.66796875 17.625 C-18.98571119 13.53858975 -13.22958978 9.5556368 -7.48583984 5.55639648 C-6.65906738 4.97962158 -5.83229492 4.40284668 -4.98046875 3.80859375 C-3.86514771 3.03213501 -3.86514771 3.03213501 -2.72729492 2.23999023 C-1.05911329 1.11313162 -1.05911329 1.11313162 0 0 Z " fill="#060D09" transform="translate(94,27)"/>
<path d="M0 0 C2.69082872 0.17635452 5.32851446 0.61835921 8 1 C6.68 1.33 5.36 1.66 4 2 C4.33 15.86 4.66 29.72 5 44 C9.95 44.33 14.9 44.66 20 45 C24.60546875 46.0859375 24.60546875 46.0859375 28.1875 47.375 C29.39792969 47.79523438 30.60835937 48.21546875 31.85546875 48.6484375 C34.65931144 49.8535674 36.62306658 51.13886645 39 53 C43.1480621 53.75419311 45.36457085 52.94672792 48.75 50.6875 C58.28788586 44.35879002 67.28103479 44.73243533 79 44 C79 30.8 79 17.6 79 4 C75.37 4 71.74 4 68 4 C68 3.67 68 3.34 68 3 C69.56116819 2.66048381 71.12401338 2.32867456 72.6875 2 C73.55761719 1.814375 74.42773438 1.62875 75.32421875 1.4375 C78 1 78 1 83 1 C83 16.18 83 31.36 83 47 C70.625 49.1875 70.625 49.1875 66.78759766 49.84057617 C58.18997875 51.42986558 51.26462284 54.15691811 44 59 C40.30806049 58.6434952 37.46504499 57.35466068 34.1875 55.6875 C27.05834393 52.35800181 19.63523264 50.72749862 12 49 C9.66388187 48.46172084 7.32795423 47.92261446 4.9921875 47.3828125 C3.85894043 47.12129395 2.72569336 46.85977539 1.55810547 46.59033203 C0.29184326 46.29811768 0.29184326 46.29811768 -1 46 C-1.02527062 39.60962769 -1.04283317 33.21926817 -1.05493164 26.82885742 C-1.05997308 24.65307127 -1.06680607 22.47728853 -1.07543945 20.30151367 C-1.08751338 17.18146933 -1.09323005 14.06146962 -1.09765625 10.94140625 C-1.10281754 9.96224747 -1.10797882 8.98308868 -1.11329651 7.97425842 C-1.11337204 7.07340012 -1.11344757 6.17254181 -1.11352539 5.24438477 C-1.115746 4.44718521 -1.11796661 3.64998566 -1.12025452 2.82862854 C-1 1 -1 1 0 0 Z " fill="#C6C6B6" transform="translate(54,60)"/>
<path d="M0 0 C20.13 0 40.26 0 61 0 C61.99 2.475 61.99 2.475 63 5 C41.55 5 20.1 5 -2 5 C-1.34 3.35 -0.68 1.7 0 0 Z " fill="#030703" transform="translate(66,161)"/>
<path d="M0 0 C19.14 0 38.28 0 58 0 C58.66 1.65 59.32 3.3 60 5 C39.54 5 19.08 5 -2 5 C-1.34 3.35 -0.68 1.7 0 0 Z " fill="#E9E20B" transform="translate(68,156)"/>
<path d="M0 0 C0.66 0 1.32 0 2 0 C2.33 1.65 2.66 3.3 3 5 C5.64 5 8.28 5 11 5 C11 5.66 11 6.32 11 7 C9.35 7.33 7.7 7.66 6 8 C6.33 10.31 6.66 12.62 7 15 C6.01 15.495 6.01 15.495 5 16 C4.27306096 17.97888961 3.60183749 19.97954558 3 22 C6.5639344 22.4192864 7.83512344 22.11111246 10.875 20.0625 C14.36850916 17.75678396 16.87308402 17.33015328 21 17 C18.67342661 18.55104893 16.48768904 19.82336701 14 21.0625 C12.9790625 21.57490234 12.9790625 21.57490234 11.9375 22.09765625 C10 23 10 23 7 24 C5.79117904 26.00016466 5.79117904 26.00016466 5 28 C1 28 1 28 -1.25 26.125 C-3 24 -3 24 -3 22 C-3.99 21.67 -4.98 21.34 -6 21 C-5.01 19.02 -4.02 17.04 -3 15 C-3.99 15 -4.98 15 -6 15 C-5.67 13.02 -5.34 11.04 -5 9 C-6.32 8.34 -7.64 7.68 -9 7 C-9 6.34 -9 5.68 -9 5 C-7.329375 4.87625 -7.329375 4.87625 -5.625 4.75 C-1.94246056 4.42126213 -1.94246056 4.42126213 -0.5625 1.9375 C-0.376875 1.298125 -0.19125 0.65875 0 0 Z " fill="#2FB247" transform="translate(94,48)"/>
<path d="M0 0 C16.83 0 33.66 0 51 0 C51.66 1.32 52.32 2.64 53 4 C34.85 4 16.7 4 -2 4 C-1.34 2.68 -0.68 1.36 0 0 Z " fill="#151306" transform="translate(71,152)"/>
<path d="M0 0 C2.24473339 3.36710009 3.33303372 6.72637215 4.5390625 10.54296875 C4.90241951 11.67236122 4.90241951 11.67236122 5.27311707 12.8245697 C6.06144915 15.27750249 6.843393 17.73241687 7.625 20.1875 C8.70238924 23.55404044 9.78252035 26.91969688 10.86328125 30.28515625 C11.13051498 31.11867615 11.39774872 31.95219604 11.67308044 32.81097412 C13.27215513 37.7848133 14.91394571 42.74041795 16.60546875 47.68359375 C16.98300293 48.78872314 17.36053711 49.89385254 17.74951172 51.0324707 C18.4431399 53.05042848 19.14367618 55.0660288 19.85205078 57.07885742 C20.15481934 57.9629126 20.45758789 58.84696777 20.76953125 59.7578125 C21.03354736 60.5120752 21.29756348 61.26633789 21.56958008 62.04345703 C22 64 22 64 21 67 C19.02021799 64.03032699 18.05847079 61.58062585 16.92114258 58.21508789 C16.51765091 57.02698013 16.11415924 55.83887238 15.69844055 54.61476135 C15.26339543 53.31752997 14.82876908 52.02015809 14.39453125 50.72265625 C13.94667907 49.3912814 13.49873566 48.05993723 13.05070496 46.72862244 C12.11358545 43.93972525 11.18034225 41.14956324 10.24926758 38.35864258 C9.05560511 34.78294542 7.8481814 31.21206206 6.63727283 27.64217472 C5.70794533 24.89504481 4.78810815 22.14480641 3.87088585 19.39361382 C3.42974256 18.07557068 2.98515259 16.75867592 2.53705788 15.44297981 C1.91166298 13.60343602 1.30083312 11.75895993 0.69067383 9.91430664 C0.33918777 8.86634415 -0.01229828 7.81838165 -0.37443542 6.73866272 C-1.00260236 3.98860713 -0.96910306 2.60866538 0 0 Z " fill="#0D1C14" transform="translate(26,104)"/>
<path d="M0 0 C3.65316671 1.24976756 4.78065836 1.67098753 7 5 C7.33 3.35 7.66 1.7 8 0 C8.33 0 8.66 0 9 0 C9.33 2.64 9.66 5.28 10 8 C11.32 8.33 12.64 8.66 14 9 C14 8.01 14 7.02 14 6 C14.66 6 15.32 6 16 6 C16 6.99 16 7.98 16 9 C16.79664063 8.44119141 16.79664063 8.44119141 17.609375 7.87109375 C18.31578125 7.39800781 19.0221875 6.92492187 19.75 6.4375 C20.44609375 5.96183594 21.1421875 5.48617187 21.859375 4.99609375 C24 4 24 4 26.265625 4.34765625 C26.83796875 4.56292969 27.4103125 4.77820313 28 5 C28 7.31 28 9.62 28 12 C22.06 12 16.12 12 10 12 C9.67 11.01 9.34 10.02 9 9 C8.34 9 7.68 9 7 9 C6.67 9.99 6.34 10.98 6 12 C3.69 12.33 1.38 12.66 -1 13 C-1 12.34 -1 11.68 -1 11 C1.31 10.01 3.62 9.02 6 8 C4.06745228 5.9754262 2.36841312 4.57894208 0 3 C0 2.01 0 1.02 0 0 Z " fill="#2A2817" transform="translate(80,80)"/>
<path d="M0 0 C14.85 0 29.7 0 45 0 C45.495 1.485 45.495 1.485 46 3 C30.49 3 14.98 3 -1 3 C-0.67 2.01 -0.34 1.02 0 0 Z " fill="#020301" transform="translate(74,146)"/>
<path d="M0 0 C0.66 0 1.32 0 2 0 C2.33 1.65 2.66 3.3 3 5 C5.64 5 8.28 5 11 5 C11 5.66 11 6.32 11 7 C9.35 7.33 7.7 7.66 6 8 C6.33 10.31 6.66 12.62 7 15 C6.319375 14.649375 5.63875 14.29875 4.9375 13.9375 C1.2912211 12.77379397 -1.28489978 13.27154898 -5 14 C-5 12.35 -5 10.7 -5 9 C-6.32 8.34 -7.64 7.68 -9 7 C-9 6.34 -9 5.68 -9 5 C-7.329375 4.87625 -7.329375 4.87625 -5.625 4.75 C-1.94246056 4.42126213 -1.94246056 4.42126213 -0.5625 1.9375 C-0.376875 1.298125 -0.19125 0.65875 0 0 Z " fill="#F2F10B" transform="translate(94,48)"/>
<path d="M0 0 C2.90834885 -0.26660183 5.60138268 -0.34779124 8.5078125 -0.29296875 C9.34843231 -0.28872391 10.18905212 -0.28447906 11.05514526 -0.28010559 C13.74541993 -0.26328532 16.43495099 -0.22562781 19.125 -0.1875 C20.94660378 -0.17245745 22.76821928 -0.1587683 24.58984375 -0.14648438 C29.06018324 -0.11337094 33.52996546 -0.06156637 38 0 C38.495 1.485 38.495 1.485 39 3 C25.47 3 11.94 3 -2 3 C-1.34 2.01 -0.68 1.02 0 0 Z " fill="#0B0904" transform="translate(78,140)"/>
<path d="M0 0 C2.69082872 0.17635452 5.32851446 0.61835921 8 1 C8 1.33 8 1.66 8 2 C6.35 2 4.7 2 3 2 C3 8.6 3 15.2 3 22 C1.02 22.99 1.02 22.99 -1 24 C-1.02887236 20.18751574 -1.04675492 16.3750593 -1.0625 12.5625 C-1.07087891 11.47388672 -1.07925781 10.38527344 -1.08789062 9.26367188 C-1.09111328 8.22919922 -1.09433594 7.19472656 -1.09765625 6.12890625 C-1.10289307 5.17056885 -1.10812988 4.21223145 -1.11352539 3.22485352 C-1 1 -1 1 0 0 Z " fill="#B0C2B2" transform="translate(54,60)"/>
<path d="M0 0 C-0.33 6.27 -0.66 12.54 -1 19 C-1.33 19 -1.66 19 -2 19 C-2.33 26.92 -2.66 34.84 -3 43 C-3.33 43 -3.66 43 -4 43 C-4 29.8 -4 16.6 -4 3 C-7.63 3 -11.26 3 -15 3 C-15 2.67 -15 2.34 -15 2 C-13.43883181 1.66048381 -11.87598662 1.32867456 -10.3125 1 C-9.44238281 0.814375 -8.57226562 0.62875 -7.67578125 0.4375 C-5 0 -5 0 0 0 Z " fill="#CACC96" transform="translate(137,61)"/>
<path d="M0 0 C0.55171875 0.22558594 1.1034375 0.45117188 1.671875 0.68359375 C1.671875 2.99359375 1.671875 5.30359375 1.671875 7.68359375 C-0.28616007 7.73748462 -2.24461409 7.77633592 -4.203125 7.80859375 C-5.29367188 7.83179687 -6.38421875 7.855 -7.5078125 7.87890625 C-10.328125 7.68359375 -10.328125 7.68359375 -12.328125 5.68359375 C-10.75465324 4.64762475 -9.16890954 3.63027643 -7.578125 2.62109375 C-6.69640625 2.05261719 -5.8146875 1.48414062 -4.90625 0.8984375 C-2.328125 -0.31640625 -2.328125 -0.31640625 0 0 Z " fill="#4F4C1E" transform="translate(106.328125,84.31640625)"/>
<path d="M0 0 C-1.76997474 0.81436868 -3.54101152 1.6264294 -5.3125 2.4375 C-6.29863281 2.88996094 -7.28476563 3.34242187 -8.30078125 3.80859375 C-11 5 -11 5 -14 6 C-15.20882096 8.00016466 -15.20882096 8.00016466 -16 10 C-17.32 10 -18.64 10 -20 10 C-22.25 7.5 -22.25 7.5 -24 5 C-23.34 5 -22.68 5 -22 5 C-21.67 4.34 -21.34 3.68 -21 3 C-19.80375 3.2475 -18.6075 3.495 -17.375 3.75 C-13.73938324 4.22616927 -13.0913817 4.05172549 -9.6875 2.125 C-8.800625 1.42375 -7.91375 0.7225 -7 0 C-3.86650268 -1.04449911 -3.01031744 -0.93423645 0 0 Z " fill="#65BC62" transform="translate(115,66)"/>
<path d="M0 0 C3.3 0 6.6 0 10 0 C9.67 0.99 9.34 1.98 9 3 C5.4375 4.6875 5.4375 4.6875 2 6 C2 7.65 2 9.3 2 11 C6.455 11.99 6.455 11.99 11 13 C8 16 8 16 5.5 16.375 C3 16 3 16 1.1875 15 C-0.76403265 11.71320817 -0.23991304 8.7786303 0 5 C0.33 4.34 0.66 3.68 1 3 C0.67 2.01 0.34 1.02 0 0 Z " fill="#110F0C" transform="translate(67,84)"/>
<path d="M0 0 C0 0.66 0 1.32 0 2 C-5.45461169 3.38529821 -10.36718401 4.2396943 -16 4 C-16 3.34 -16 2.68 -16 2 C-17.98 2.33 -19.96 2.66 -22 3 C-15.57133388 -1.28577741 -7.410652 -2.47021733 0 0 Z " fill="#C9C8AF" transform="translate(129,106)"/>
<path d="M0 0 C1.52158268 3.92829656 0.42185614 6.61906369 -0.87109375 10.515625 C-1.48500977 12.39121094 -1.48500977 12.39121094 -2.11132812 14.3046875 C-2.55316156 15.61986689 -2.99522175 16.93497013 -3.4375 18.25 C-3.87660192 19.58041571 -4.31476394 20.91114202 -4.75195312 22.2421875 C-5.82541741 25.49796929 -6.90841799 28.75025686 -8 32 C-8.66 32 -9.32 32 -10 32 C-9.37752765 25.21116089 -7.19104077 19.05256364 -5 12.625 C-4.44699219 10.96791016 -4.44699219 10.96791016 -3.8828125 9.27734375 C-1.14050904 1.14050904 -1.14050904 1.14050904 0 0 Z " fill="#050F08" transform="translate(153,140)"/>
<path d="M0 0 C2.91147521 2.46531186 3.87481933 4.85257748 5.078125 8.4375 C5.43390625 9.49710938 5.7896875 10.55671875 6.15625 11.6484375 C6.5171875 12.75445312 6.878125 13.86046875 7.25 15 C7.62640625 16.10601562 8.0028125 17.21203125 8.390625 18.3515625 C8.74125 19.41117188 9.091875 20.47078125 9.453125 21.5625 C9.77442383 22.53316406 10.09572266 23.50382812 10.42675781 24.50390625 C11 27 11 27 10 30 C8.08176596 27.12264894 7.14349213 24.81756654 6.0546875 21.5625 C5.52294922 19.97308594 5.52294922 19.97308594 4.98046875 18.3515625 C4.61566406 17.24554688 4.25085937 16.13953125 3.875 15 C3.50246094 13.89398438 3.12992188 12.78796875 2.74609375 11.6484375 C2.21822266 10.05902344 2.21822266 10.05902344 1.6796875 8.4375 C1.35726074 7.46683594 1.03483398 6.49617187 0.70263672 5.49609375 C0 3 0 3 0 0 Z " fill="#08130B" transform="translate(37,141)"/>
<path d="M0 0 C0.99 0.33 1.98 0.66 3 1 C2.34 5.29 1.68 9.58 1 14 C-0.65 14.33 -2.3 14.66 -4 15 C-3.67 12.36 -3.34 9.72 -3 7 C-4.32 6.34 -5.64 5.68 -7 5 C-7 3.68 -7 2.36 -7 1 C-3.83884224 2.36983503 -3.0072908 2.9890638 -1 6 C-0.67 4.02 -0.34 2.04 0 0 Z " fill="#373425" transform="translate(116,79)"/>
<path d="M0 0 C0.99 0.33 1.98 0.66 3 1 C2.67 1.33 2.34 1.66 2 2 C1.43623806 8.87789563 2.73239126 13.88646234 5.22265625 20.30078125 C6.04956831 23.1721191 5.83032541 24.22818386 5 27 C3.66165014 23.21008507 2.33017337 19.41779164 1 15.625 C0.6184375 14.54476562 0.236875 13.46453125 -0.15625 12.3515625 C-0.5171875 11.3203125 -0.878125 10.2890625 -1.25 9.2265625 C-1.58515625 8.27346191 -1.9203125 7.32036133 -2.265625 6.33837891 C-3 4 -3 4 -3 2 C-2.01 1.34 -1.02 0.68 0 0 Z " fill="#29A34D" transform="translate(22,80)"/>
<path d="M0 0 C0.66 0.33 1.32 0.66 2 1 C2 2.32 2 3.64 2 5 C2.99 5.66 3.98 6.32 5 7 C3.68 7 2.36 7 1 7 C1 9.31 1 11.62 1 14 C-1.58296017 14.19522373 -4.16604079 14.38144403 -6.75 14.5625 C-7.47960937 14.61857422 -8.20921875 14.67464844 -8.9609375 14.73242188 C-12.54953651 14.97709908 -15.55027225 14.99666259 -19 14 C-18.67 13.34 -18.34 12.68 -18 12 C-12.06 12.33 -6.12 12.66 0 13 C-0.23333333 6.36666667 -0.23333333 6.36666667 -3 4 C-2.01 4 -1.02 4 0 4 C0 2.68 0 1.36 0 0 Z " fill="#F9F124" transform="translate(108,79)"/>
<path d="M0 0 C1.75570312 0.01353516 1.75570312 0.01353516 3.546875 0.02734375 C4.43890625 0.03894531 5.3309375 0.05054687 6.25 0.0625 C1.57192007 3.18121996 -2.12687233 3.36921605 -7.75 3.0625 C-8.74 2.4025 -9.73 1.7425 -10.75 1.0625 C-7.14006828 -0.07230527 -3.7657673 -0.03765767 0 0 Z " fill="#CECCB0" transform="translate(67.75,104.9375)"/>
<path d="M0 0 C3.32710168 4.99065252 5.58827908 10.92111612 5 17 C3 16 3 16 2.1484375 13.92578125 C0.74105263 9.17052631 -0.3961821 5.01830661 0 0 Z " fill="#07120A" transform="translate(21,89)"/>
<path d="M0 0 C0.99 0.33 1.98 0.66 3 1 C3.33 1.99 3.66 2.98 4 4 C5.95597184 5.39712274 7.95436401 6.73779907 10 8 C9.34 8.66 8.68 9.32 8 10 C4.37 7.36 0.74 4.72 -3 2 C-2.01 1.34 -1.02 0.68 0 0 Z " fill="#0D130F" transform="translate(108,34)"/>
<path d="M0 0 C0.33 0.99 0.66 1.98 1 3 C-2.63 2.67 -6.26 2.34 -10 2 C-9 0 -9 0 -7.25 -0.6875 C-4.60760177 -1.05449975 -2.57327078 -0.64331769 0 0 Z " fill="#C0C0BE" transform="translate(76,107)"/>
<path d="M0 0 C2.875 -0.1875 2.875 -0.1875 6 0 C6.66 0.99 7.32 1.98 8 3 C7.01 3.66 6.02 4.32 5 5 C3.02 4.01 1.04 3.02 -1 2 C-0.67 1.34 -0.34 0.68 0 0 Z " fill="#BBBAB7" transform="translate(86,112)"/>
<path d="M0 0 C1.53690745 2.41040161 2.09752136 3.50082285 1.5390625 6.359375 C1.23742187 7.14828125 0.93578125 7.9371875 0.625 8.75 C0.32851562 9.54921875 0.03203125 10.3484375 -0.2734375 11.171875 C-0.51320312 11.77515625 -0.75296875 12.3784375 -1 13 C-1.66 12.67 -2.32 12.34 -3 12 C-2.68950274 10.56206608 -2.3765224 9.1246682 -2.0625 7.6875 C-1.88847656 6.88699219 -1.71445313 6.08648437 -1.53515625 5.26171875 C-1 3 -1 3 0 0 Z " fill="#0C2011" transform="translate(163,107)"/>
<path d="M0 0 C0.33 0.99 0.66 1.98 1 3 C-2 5 -2 5 -6 5 C-6 4.34 -6 3.68 -6 3 C-7.32 2.67 -8.64 2.34 -10 2 C-6.7 1.34 -3.4 0.68 0 0 Z " fill="#C2C0B2" transform="translate(135,103)"/>
<path d="M0 0 C3.3 0.33 6.6 0.66 10 1 C7 4 7 4 4.3125 4.1875 C3.1678125 4.0946875 3.1678125 4.0946875 2 4 C1.34 2.68 0.68 1.36 0 0 Z " fill="#201E0E" transform="translate(68,96)"/>
<path d="M0 0 C1.32 0.33 2.64 0.66 4 1 C4 2.98 4 4.96 4 7 C0.7 7 -2.6 7 -6 7 C-4 5 -4 5 -0.875 4.875 C0.07375 4.91625 1.0225 4.9575 2 5 C2 4.34 2 3.68 2 3 C1.34 2.67 0.68 2.34 0 2 C0 1.34 0 0.68 0 0 Z " fill="#040403" transform="translate(104,84)"/>
<path d="M0 0 C2.45823172 3.68734758 3.01242616 6.69699971 4 11 C3.01 10.67 2.02 10.34 1 10 C0.234375 7.96875 0.234375 7.96875 -0.25 5.5 C-0.42015625 4.6853125 -0.5903125 3.870625 -0.765625 3.03125 C-0.84296875 2.3609375 -0.9203125 1.690625 -1 1 C-0.67 0.67 -0.34 0.34 0 0 Z " fill="#153223" transform="translate(35,131)"/>
<path d="M0 0 C0.66 0.33 1.32 0.66 2 1 C2 2.32 2 3.64 2 5 C2.99 5.66 3.98 6.32 5 7 C3.68 7 2.36 7 1 7 C1 8.98 1 10.96 1 13 C0.67 13 0.34 13 0 13 C-0.12375 11.88625 -0.2475 10.7725 -0.375 9.625 C-0.6465813 5.96896323 -0.6465813 5.96896323 -3 4 C-2.01 4 -1.02 4 0 4 C0 2.68 0 1.36 0 0 Z " fill="#C7C64A" transform="translate(108,79)"/>
<path d="M0 0 C0 0.66 0 1.32 0 2 C0.66 2.33 1.32 2.66 2 3 C-0.64 3.66 -3.28 4.32 -6 5 C-6.33 4.01 -6.66 3.02 -7 2 C-2.25 0 -2.25 0 0 0 Z " fill="#BDBDBC" transform="translate(113,108)"/>
<path d="M0 0 C2.99324263 1.0975223 3.84610901 1.67682892 5.25 4.625 C5.4975 5.40875 5.745 6.1925 6 7 C4.02 6.01 2.04 5.02 0 4 C0 2.68 0 1.36 0 0 Z " fill="#231F15" transform="translate(109,80)"/>
<path d="M0 0 C2.4375 0.75 2.4375 0.75 5 2 C5.8125 4.125 5.8125 4.125 6 6 C3.5625 5.25 3.5625 5.25 1 4 C0.1875 1.875 0.1875 1.875 0 0 Z " fill="#1B190C" transform="translate(80,80)"/>
<path d="M0 0 C1.32 0 2.64 0 4 0 C3.67 1.65 3.34 3.3 3 5 C2.01 4.67 1.02 4.34 0 4 C0 2.68 0 1.36 0 0 Z " fill="#F3E815" transform="translate(110,86)"/>
<path d="M0 0 C3.465 1.98 3.465 1.98 7 4 C7 4.99 7 5.98 7 7 C3.535 5.02 3.535 5.02 0 3 C0 2.01 0 1.02 0 0 Z " fill="#111E17" transform="translate(97,28)"/>
<path d="M0 0 C1.43088528 2.86177057 0.59991697 4.93375773 0 8 C-1.5 6.6875 -1.5 6.6875 -3 5 C-3 4.01 -3 3.02 -3 2 C-2.01 1.34 -1.02 0.68 0 0 Z " fill="#C0B539" transform="translate(88,78)"/>
<path d="M0 0 C0.99 0.33 1.98 0.66 3 1 C-1.625 5 -1.625 5 -5 5 C-3.35 3.35 -1.7 1.7 0 0 Z " fill="#0A1A10" transform="translate(31,71)"/>
<path d="M0 0 C2 3 2 3 1.625 5.1875 C1.315625 6.0846875 1.315625 6.0846875 1 7 C0.67 4.69 0.34 2.38 0 0 Z " fill="#030600" transform="translate(20,95)"/>
<path d="M0 0 C0.625 1.875 0.625 1.875 1 4 C0.34 4.66 -0.32 5.32 -1 6 C-0.67 4.02 -0.34 2.04 0 0 Z " fill="#020601" transform="translate(148,162)"/>
<path d="M0 0 C0.33 0.99 0.66 1.98 1 3 C0.34 3.66 -0.32 4.32 -1 5 C-0.67 3.35 -0.34 1.7 0 0 Z " fill="#020602" transform="translate(155,142)"/>
<path d="M0 0 C0.99 0.33 1.98 0.66 3 1 C2.01 1 1.02 1 0 1 C0 0.67 0 0.34 0 0 Z " fill="#010102" transform="translate(138,55)"/>
<path d="" fill="#010301" transform="translate(0,0)"/>
<path d="" fill="#030502" transform="translate(0,0)"/>
<path d="" fill="#020304" transform="translate(0,0)"/>
<path d="" fill="#000402" transform="translate(0,0)"/>
<path d="" fill="#010304" transform="translate(0,0)"/>
<path d="" fill="#010402" transform="translate(0,0)"/>
<path d="" fill="#000100" transform="translate(0,0)"/>
<path d="" fill="#000302" transform="translate(0,0)"/>
<path d="" fill="#010301" transform="translate(0,0)"/>
<path d="" fill="#000200" transform="translate(0,0)"/>
<path d="" fill="#020200" transform="translate(0,0)"/>
<path d="" fill="#030201" transform="translate(0,0)"/>
<path d="" fill="#030302" transform="translate(0,0)"/>
<path d="" fill="#000403" transform="translate(0,0)"/>
<path d="" fill="#000404" transform="translate(0,0)"/>
<path d="" fill="#020205" transform="translate(0,0)"/>
<path d="" fill="#030204" transform="translate(0,0)"/>
<path d="" fill="#010301" transform="translate(0,0)"/>
<path d="" fill="#010202" transform="translate(0,0)"/>
<path d="" fill="#020203" transform="translate(0,0)"/>
<path d="" fill="#000202" transform="translate(0,0)"/>
<path d="" fill="#010302" transform="translate(0,0)"/>
<path d="" fill="#000300" transform="translate(0,0)"/>
<path d="" fill="#000303" transform="translate(0,0)"/>
<path d="" fill="#010302" transform="translate(0,0)"/>
<path d="" fill="#000206" transform="translate(0,0)"/>
<path d="" fill="#020401" transform="translate(0,0)"/>
<path d="" fill="#010202" transform="translate(0,0)"/>
<path d="" fill="#020305" transform="translate(0,0)"/>
<path d="" fill="#010302" transform="translate(0,0)"/>
<path d="" fill="#010106" transform="translate(0,0)"/>
<path d="" fill="#000203" transform="translate(0,0)"/>
<path d="" fill="#000200" transform="translate(0,0)"/>
<path d="" fill="#020102" transform="translate(0,0)"/>
<path d="" fill="#010000" transform="translate(0,0)"/>
<path d="" fill="#010102" transform="translate(0,0)"/>
<path d="" fill="#010202" transform="translate(0,0)"/>
<path d="" fill="#000301" transform="translate(0,0)"/>
<path d="" fill="#010200" transform="translate(0,0)"/>
<path d="" fill="#020100" transform="translate(0,0)"/>
<path d="" fill="#000103" transform="translate(0,0)"/>
<path d="" fill="#010202" transform="translate(0,0)"/>
<path d="" fill="#000902" transform="translate(0,0)"/>
<path d="" fill="#020200" transform="translate(0,0)"/>
<path d="" fill="#000601" transform="translate(0,0)"/>
<path d="" fill="#000201" transform="translate(0,0)"/>
<path d="M0 0 C3 1 3 1 3 1 Z " fill="#000204" transform="translate(94,25)"/>
<path d="" fill="#000202" transform="translate(0,0)"/>
<path d="" fill="#000004" transform="translate(0,0)"/>
<path d="" fill="#030101" transform="translate(0,0)"/>
<path d="" fill="#000103" transform="translate(0,0)"/>
<path d="" fill="#010402" transform="translate(0,0)"/>
<path d="" fill="#010401" transform="translate(0,0)"/>
<path d="" fill="#010101" transform="translate(0,0)"/>
<path d="" fill="#000803" transform="translate(0,0)"/>
<path d="M0 0 C2 1 2 1 2 1 Z " fill="#020100" transform="translate(172,79)"/>
<path d="M0 0 C2 1 2 1 2 1 Z " fill="#010201" transform="translate(17,79)"/>
<path d="M0 0 C2 1 2 1 2 1 Z " fill="#020002" transform="translate(20,77)"/>
<path d="M0 0 C2 1 2 1 2 1 Z " fill="#000302" transform="translate(168,76)"/>
<path d="M0 0 C2 1 2 1 2 1 Z " fill="#000304" transform="translate(23,75)"/>
<path d="M0 0 C2 1 2 1 2 1 Z " fill="#020201" transform="translate(164,73)"/>
<path d="M0 0 C2 1 2 1 2 1 Z " fill="#000103" transform="translate(162,72)"/>
<path d="M0 0 C2 1 2 1 2 1 Z " fill="#020202" transform="translate(27,72)"/>
<path d="M0 0 C2 1 2 1 2 1 Z " fill="#000201" transform="translate(158,69)"/>
<path d="M0 0 C2 1 2 1 2 1 Z " fill="#020302" transform="translate(31,69)"/>
<path d="M0 0 C2 1 2 1 2 1 Z " fill="#010101" transform="translate(155,67)"/>
<path d="M0 0 C2 1 2 1 2 1 Z " fill="#000201" transform="translate(34,67)"/>
<path d="M0 0 C2 1 2 1 2 1 Z " fill="#050003" transform="translate(152,65)"/>
<path d="M0 0 C2 1 2 1 2 1 Z " fill="#010001" transform="translate(37,65)"/>
<path d="M0 0 C2 1 2 1 2 1 Z " fill="#010201" transform="translate(148,62)"/>
<path d="M0 0 C2 1 2 1 2 1 Z " fill="#030205" transform="translate(145,60)"/>
<path d="M0 0 C2 1 2 1 2 1 Z " fill="#000402" transform="translate(44,60)"/>
<path d="M0 0 C2 1 2 1 2 1 Z " fill="#010001" transform="translate(142,58)"/>
<path d="M0 0 C2 1 2 1 2 1 Z " fill="#010201" transform="translate(47,58)"/>
<path d="M0 0 C2 1 2 1 2 1 Z " fill="#020102" transform="translate(50,56)"/>
<path d="M0 0 C2 1 2 1 2 1 Z " fill="#020100" transform="translate(135,53)"/>
<path d="M0 0 C2 1 2 1 2 1 Z " fill="#010000" transform="translate(54,53)"/>
<path d="M0 0 C2 1 2 1 2 1 Z " fill="#050101" transform="translate(131,50)"/>
<path d="M0 0 C2 1 2 1 2 1 Z " fill="#010104" transform="translate(58,50)"/>
<path d="M0 0 C2 1 2 1 2 1 Z " fill="#020003" transform="translate(60,49)"/>
<path d="M0 0 C2 1 2 1 2 1 Z " fill="#040202" transform="translate(128,48)"/>
<path d="M0 0 C2 1 2 1 2 1 Z " fill="#010300" transform="translate(125,46)"/>
<path d="M0 0 C2 1 2 1 2 1 Z " fill="#020201" transform="translate(64,46)"/>
<path d="M0 0 C2 1 2 1 2 1 Z " fill="#010203" transform="translate(122,44)"/>
<path d="M0 0 C2 1 2 1 2 1 Z " fill="#060102" transform="translate(67,44)"/>
<path d="M0 0 C2 1 2 1 2 1 Z " fill="#000400" transform="translate(70,42)"/>
<path d="M0 0 C2 1 2 1 2 1 Z " fill="#020301" transform="translate(118,41)"/>
<path d="M0 0 C2 1 2 1 2 1 Z " fill="#010102" transform="translate(115,39)"/>
<path d="M0 0 C2 1 2 1 2 1 Z " fill="#020101" transform="translate(74,39)"/>
<path d="M0 0 C2 1 2 1 2 1 Z " fill="#020104" transform="translate(112,37)"/>
<path d="M0 0 C2 1 2 1 2 1 Z " fill="#020600" transform="translate(77,37)"/>
<path d="M0 0 C2 1 2 1 2 1 Z " fill="#010202" transform="translate(80,35)"/>
<path d="M0 0 C2 1 2 1 2 1 Z " fill="#030401" transform="translate(105,32)"/>
<path d="M0 0 C2 1 2 1 2 1 Z " fill="#000501" transform="translate(84,32)"/>
<path d="M0 0 C2 1 2 1 2 1 Z " fill="#010300" transform="translate(102,30)"/>
<path d="M0 0 C2 1 2 1 2 1 Z " fill="#000301" transform="translate(87,30)"/>
<path d="M0 0 C2 1 2 1 2 1 Z " fill="#010201" transform="translate(98,27)"/>
<path d="M0 0 C2 1 2 1 2 1 Z " fill="#020106" transform="translate(91,27)"/>
<path d="" fill="#000100" transform="translate(0,0)"/>
<path d="" fill="#010000" transform="translate(0,0)"/>
<path d="" fill="#000503" transform="translate(0,0)"/>
<path d="" fill="#020302" transform="translate(0,0)"/>
<path d="" fill="#010402" transform="translate(0,0)"/>
<path d="" fill="#000503" transform="translate(0,0)"/>
<path d="" fill="#010402" transform="translate(0,0)"/>
<path d="" fill="#020101" transform="translate(0,0)"/>
<path d="" fill="#010602" transform="translate(0,0)"/>
<path d="" fill="#040306" transform="translate(0,0)"/>
<path d="" fill="#020102" transform="translate(0,0)"/>
<path d="" fill="#010101" transform="translate(0,0)"/>
<path d="" fill="#010103" transform="translate(0,0)"/>
<path d="" fill="#020302" transform="translate(0,0)"/>
<path d="" fill="#010503" transform="translate(0,0)"/>
<path d="" fill="#010602" transform="translate(0,0)"/>
<path d="" fill="#060207" transform="translate(0,0)"/>
<path d="" fill="#040203" transform="translate(0,0)"/>
<path d="" fill="#040505" transform="translate(0,0)"/>
<path d="" fill="#050406" transform="translate(0,0)"/>
<path d="" fill="#050105" transform="translate(0,0)"/>
<path d="" fill="#010204" transform="translate(0,0)"/>
<path d="" fill="#000602" transform="translate(0,0)"/>
<path d="" fill="#020503" transform="translate(0,0)"/>
<path d="" fill="#010604" transform="translate(0,0)"/>
<path d="" fill="#030203" transform="translate(0,0)"/>
<path d="" fill="#010202" transform="translate(0,0)"/>
<path d="" fill="#010102" transform="translate(0,0)"/>
<path d="" fill="#030004" transform="translate(0,0)"/>
<path d="" fill="#020205" transform="translate(0,0)"/>
<path d="" fill="#030103" transform="translate(0,0)"/>
<path d="" fill="#040202" transform="translate(0,0)"/>
<path d="" fill="#050101" transform="translate(0,0)"/>
<path d="" fill="#050002" transform="translate(0,0)"/>
<path d="" fill="#060001" transform="translate(0,0)"/>
<path d="" fill="#020003" transform="translate(0,0)"/>
<path d="" fill="#040205" transform="translate(0,0)"/>
<path d="" fill="#020203" transform="translate(0,0)"/>
<path d="" fill="#020302" transform="translate(0,0)"/>
<path d="" fill="#020103" transform="translate(0,0)"/>
<path d="" fill="#030303" transform="translate(0,0)"/>
<path d="" fill="#040303" transform="translate(0,0)"/>
<path d="" fill="#010203" transform="translate(0,0)"/>
<path d="" fill="#010403" transform="translate(0,0)"/>
<path d="" fill="#010104" transform="translate(0,0)"/>
<path d="" fill="#030803" transform="translate(0,0)"/>
<path d="" fill="#010100" transform="translate(0,0)"/>
<path d="" fill="#030206" transform="translate(0,0)"/>
<path d="" fill="#040102" transform="translate(0,0)"/>
<path d="" fill="#050001" transform="translate(0,0)"/>
<path d="" fill="#010302" transform="translate(0,0)"/>
<path d="" fill="#010103" transform="translate(0,0)"/>
<path d="" fill="#030102" transform="translate(0,0)"/>
<path d="" fill="#030202" transform="translate(0,0)"/>
<path d="" fill="#030102" transform="translate(0,0)"/>
<path d="" fill="#020502" transform="translate(0,0)"/>
<path d="" fill="#010202" transform="translate(0,0)"/>
<path d="" fill="#010402" transform="translate(0,0)"/>
<path d="" fill="#020506" transform="translate(0,0)"/>
<path d="" fill="#010201" transform="translate(0,0)"/>
<path d="" fill="#010205" transform="translate(0,0)"/>
<path d="" fill="#000000" transform="translate(0,0)"/>
<path d="" fill="#010103" transform="translate(0,0)"/>
</svg>
