<?xml version="1.0" encoding="UTF-8"?>
<svg version="1.1" xmlns="http://www.w3.org/2000/svg" width="96" height="96">
<path d="M0 0 C3.9679601 1.78558205 7.44251317 4.27516912 11 6.75 C11.68191406 7.22155518 12.36382812 7.69311035 13.06640625 8.17895508 C22.07016683 14.41534783 31.03573443 20.70703024 40 27 C38.40644657 36.90423715 35.09509269 46.15750098 31.875 55.625 C29.93625 61.35875 27.9975 67.0925 26 73 C9.5 73 -7 73 -24 73 C-27.4340625 62.97625 -27.4340625 62.97625 -30.9375 52.75 C-31.65929443 50.64592773 -32.38108887 48.54185547 -33.12475586 46.37402344 C-33.69658231 44.70251859 -34.26828657 43.03097194 -34.83984375 41.359375 C-35.13701294 40.4945752 -35.43418213 39.62977539 -35.74035645 38.73876953 C-36.02447388 37.90684082 -36.30859131 37.07491211 -36.60131836 36.21777344 C-36.84780624 35.49829529 -37.09429413 34.77881714 -37.34825134 34.03753662 C-37.98719556 32.04003003 -38.51530456 30.03988322 -39 28 C-32.31869795 22.66541423 -25.41450968 17.72382894 -18.375 12.875 C-16.38254335 11.49778513 -14.39034944 10.12019007 -12.3984375 8.7421875 C-11.4712793 8.10120117 -10.54412109 7.46021484 -9.58886719 6.79980469 C-6.37084062 4.56260252 -3.18076398 2.28979368 0 0 Z " fill="#1F7A36" transform="translate(47,13)"/>
<path d="M0 0 C0.33 0.66 0.66 1.32 1 2 C2.32 2 3.64 2 5 2 C5 2.66 5 3.32 5 4 C4.34 4 3.68 4 3 4 C3.33 5.65 3.66 7.3 4 9 C4.6290625 8.855625 5.258125 8.71125 5.90625 8.5625 C6.7621875 8.376875 7.618125 8.19125 8.5 8 C9.3353125 7.814375 10.170625 7.62875 11.03125 7.4375 C14 7 14 7 22 7 C22 14.59 22 22.18 22 30 C14.1875 31.375 14.1875 31.375 11.73901367 31.79443359 C8.24721927 32.42962389 5.98722593 33.00851605 3 35 C-1.84645545 34.54586655 -6.59550448 33.18461398 -11.3125 32 C-12.04017578 31.82210937 -12.76785156 31.64421875 -13.51757812 31.4609375 C-18.87789208 30.12210792 -18.87789208 30.12210792 -20 29 C-20.08713831 27.29227642 -20.10700007 25.58101351 -20.09765625 23.87109375 C-20.09443359 22.83662109 -20.09121094 21.80214844 -20.08789062 20.73632812 C-20.07951172 19.64771484 -20.07113281 18.55910156 -20.0625 17.4375 C-20.05798828 16.34501953 -20.05347656 15.25253906 -20.04882812 14.12695312 C-20.03699826 11.41791505 -20.02051543 8.70898401 -20 6 C-18.55367187 6.32484375 -18.55367187 6.32484375 -17.078125 6.65625 C-15.81484375 6.9346875 -14.5515625 7.213125 -13.25 7.5 C-11.99703125 7.7784375 -10.7440625 8.056875 -9.453125 8.34375 C-5.93087755 9.12446903 -5.93087755 9.12446903 -2 9 C-1.67 8.34 -1.34 7.68 -1 7 C-1.66 6.67 -2.32 6.34 -3 6 C-2.67 5.34 -2.34 4.68 -2 4 C-2.99 4 -3.98 4 -5 4 C-5 3.34 -5 2.68 -5 2 C-3.35 1.34 -1.7 0.68 0 0 Z " fill="#F8EE0B" transform="translate(47,24)"/>
<path d="M0 0 C5.759378 2.15976675 12.50104286 4.6884994 17 9 C17 9.99 17 10.98 17 12 C16.34 12 15.68 12 15 12 C14.84362061 12.61206299 14.68724121 13.22412598 14.52612305 13.85473633 C12.31338319 22.25545131 9.58917705 30.4618034 6.8125 38.6875 C6.34411798 40.08258729 5.87601717 41.47776903 5.40820312 42.87304688 C4.27536759 46.24979034 3.13875892 49.62524882 2 53 C-0.31 53 -2.62 53 -5 53 C-5.33 52.34 -5.66 51.68 -6 51 C-16.23 50.67 -26.46 50.34 -37 50 C-36.67 49.01 -36.34 48.02 -36 47 C-27.09 46.67 -18.18 46.34 -9 46 C-17.25 45.67 -25.5 45.34 -34 45 C-34 44.67 -34 44.34 -34 44 C-26.08 44 -18.16 44 -10 44 C-10 43.34 -10 42.68 -10 42 C-17.26 42 -24.52 42 -32 42 C-31 38 -31 38 -30 36 C-24.72 36 -19.44 36 -14 36 C-14.495 33.525 -14.495 33.525 -15 31 C-9.06 31 -3.12 31 3 31 C3 24.4 3 17.8 3 11 C1.68 10.67 0.36 10.34 -1 10 C-0.67 6.7 -0.34 3.4 0 0 Z " fill="#47A93A" transform="translate(70,31)"/>
<path d="M0 0 C1.32 0 2.64 0 4 0 C4 3.63 4 7.26 4 11 C5.66289062 11.29003906 5.66289062 11.29003906 7.359375 11.5859375 C8.82297476 11.84863489 10.28651327 12.11167367 11.75 12.375 C12.47960938 12.50132813 13.20921875 12.62765625 13.9609375 12.7578125 C17.63754328 13.42628628 20.71410217 14.23664584 24 16 C27.71057941 15.74112237 30.9076418 14.690762 34.375 13.4375 C38.77115088 11.89996676 42.36727088 11.74730568 47 12 C47 8.04 47 4.08 47 0 C48.32 0 49.64 0 51 0 C51 6.6 51 13.2 51 20 C45.06 20 39.12 20 33 20 C33 20.99 33 21.98 33 23 C28.38 23 23.76 23 19 23 C19 22.01 19 21.02 19 20 C12.73 20 6.46 20 0 20 C0 13.4 0 6.8 0 0 Z " fill="#030403" transform="translate(22,42)"/>
<path d="M0 0 C2.65012028 1.27220305 5.08456505 2.65224218 7.50390625 4.3203125 C8.15746094 4.76979248 8.81101562 5.21927246 9.484375 5.68237305 C10.17015625 6.15843994 10.8559375 6.63450684 11.5625 7.125 C12.26761719 7.61202393 12.97273438 8.09904785 13.69921875 8.60083008 C19.53283674 12.64392509 25.29277599 16.78003987 31 21 C27.42424104 21 25.94704065 19.91159393 23 18 C23 21.3 23 24.6 23 28 C22.67 28 22.34 28 22 28 C22 24.7 22 21.4 22 18 C19.93728361 18.3110685 17.87483534 18.62391516 15.8125 18.9375 C14.66394531 19.11152344 13.51539063 19.28554688 12.33203125 19.46484375 C9.53674788 19.91379313 6.77066414 20.42082162 4 21 C3.4465236 18.92446352 3 17.15634036 3 15 C3.66 15 4.32 15 5 15 C5 14.34 5 13.68 5 13 C1.30458414 12.04975021 -1.30458414 12.04975021 -5 13 C-5 13.66 -5 14.32 -5 15 C-4.01 15 -3.02 15 -2 15 C-1.67 16.65 -1.34 18.3 -1 20 C-5.16309644 21.14658294 -8.03424257 20.77611779 -12.1875 19.6875 C-13.23292969 19.42324219 -14.27835938 19.15898438 -15.35546875 18.88671875 C-18 18 -18 18 -20 16 C-16.65050414 11.17848885 -12.56627482 8.37424014 -7.75 5.1875 C-7.00492188 4.68541016 -6.25984375 4.18332031 -5.4921875 3.66601562 C-3.66605943 2.43689096 -1.83540611 1.21520721 0 0 Z " fill="#229642" transform="translate(47,13)"/>
<path d="M0 0 C13.07881773 1.74384236 13.07881773 1.74384236 18 6 C18.33 6.66 18.66 7.32 19 8 C12.25 9.125 12.25 9.125 10 8 C10 8.66 10 9.32 10 10 C8.35 10.33 6.7 10.66 5 11 C4.66602213 13.87413125 4.66602213 13.87413125 5 17 C6.88077873 18.91256712 6.88077873 18.91256712 9 20 C8.67 20.66 8.34 21.32 8 22 C5.36 21.67 2.72 21.34 0 21 C0 14.07 0 7.14 0 0 Z " fill="#FCF106" transform="translate(29,31)"/>
<path d="M0 0 C0.66 0 1.32 0 2 0 C2 7.26 2 14.52 2 22 C5.3 22.33 8.6 22.66 12 23 C14.33530895 23.99537759 16.66903725 24.99448666 19 26 C21.72453884 25.80991589 23.40175431 25.3450905 25.75390625 23.98828125 C30.18129096 22.04023198 35.2343041 22.31080625 40 22 C40 15.4 40 8.8 40 2 C38.02 2 36.04 2 34 2 C34 1.67 34 1.34 34 1 C36.64 1 39.28 1 42 1 C42 8.59 42 16.18 42 24 C34.1875 25.375 34.1875 25.375 31.73901367 25.79443359 C28.24721927 26.42962389 25.98722593 27.00851605 23 29 C18.15354455 28.54586655 13.40449552 27.18461398 8.6875 26 C7.95982422 25.82210937 7.23214844 25.64421875 6.48242188 25.4609375 C1.12210792 24.12210792 1.12210792 24.12210792 0 23 C-0.08713831 21.29227642 -0.10700007 19.58101351 -0.09765625 17.87109375 C-0.09443359 16.83662109 -0.09121094 15.80214844 -0.08789062 14.73632812 C-0.07951172 13.64771484 -0.07113281 12.55910156 -0.0625 11.4375 C-0.05798828 10.34501953 -0.05347656 9.25253906 -0.04882812 8.12695312 C-0.03699826 5.41791505 -0.02051543 2.70898401 0 0 Z " fill="#BEC2AD" transform="translate(27,30)"/>
<path d="M0 0 C0.66 0 1.32 0 2 0 C2 0.66 2 1.32 2 2 C3.32 1.67 4.64 1.34 6 1 C6 2.32 6 3.64 6 5 C8.97 4.34 11.94 3.68 15 3 C15 4.32 15 5.64 15 7 C13.87851562 6.94779297 13.87851562 6.94779297 12.734375 6.89453125 C11.25710937 6.85392578 11.25710937 6.85392578 9.75 6.8125 C8.77546875 6.77769531 7.8009375 6.74289063 6.796875 6.70703125 C3.58810535 7.04314539 2.39650673 7.92021223 0 10 C-2.125 10.8125 -2.125 10.8125 -4 11 C-6 9 -6 9 -6.1875 5.9375 C-6 3 -6 3 -5 2 C-3.33382885 1.95936168 -1.66611905 1.957279 0 2 C0 1.34 0 0.68 0 0 Z " fill="#E2DB14" transform="translate(39,39)"/>
<path d="M0 0 C0.33 0.66 0.66 1.32 1 2 C2.32 2 3.64 2 5 2 C5 2.66 5 3.32 5 4 C4.34 4 3.68 4 3 4 C3.66 6.31 4.32 8.62 5 11 C3.68 12.32 2.36 13.64 1 15 C-0.65 13.35 -2.3 11.7 -4 10 C-3.01 9.01 -2.02 8.02 -1 7 C-1.66 6.67 -2.32 6.34 -3 6 C-2.67 5.34 -2.34 4.68 -2 4 C-2.99 4 -3.98 4 -5 4 C-5 3.34 -5 2.68 -5 2 C-3.35 1.34 -1.7 0.68 0 0 Z " fill="#3CB54F" transform="translate(47,24)"/>
<path d="M0 0 C0.66 0.33 1.32 0.66 2 1 C-0.4369153 2.79246661 -2.87450511 4.58400284 -5.3125 6.375 C-6.00279297 6.88289063 -6.69308594 7.39078125 -7.40429688 7.9140625 C-8.07138672 8.40390625 -8.73847656 8.89375 -9.42578125 9.3984375 C-10.03848877 9.84880371 -10.65119629 10.29916992 -11.2824707 10.76318359 C-12.83003577 11.87760643 -14.41322623 12.94215082 -16 14 C-15.7834375 14.75925781 -15.566875 15.51851562 -15.34375 16.30078125 C-15.0653125 17.29464844 -14.786875 18.28851563 -14.5 19.3125 C-14.2215625 20.29863281 -13.943125 21.28476562 -13.65625 22.30078125 C-13 25 -13 25 -13 28 C-12.34 28 -11.68 28 -11 28 C-11 30.64 -11 33.28 -11 36 C-12.77118892 33.34321662 -13.58611664 31.53627435 -14.5078125 28.55078125 C-14.90419922 27.27944336 -14.90419922 27.27944336 -15.30859375 25.98242188 C-15.71271484 24.66081055 -15.71271484 24.66081055 -16.125 23.3125 C-16.40214844 22.41982422 -16.67929687 21.52714844 -16.96484375 20.60742188 C-17.64756104 18.40624718 -18.32576666 16.20378527 -19 14 C-12.8246433 9.09253054 -6.50165096 4.46564335 0 0 Z " fill="#08190C" transform="translate(27,27)"/>
<path d="M0 0 C1.32 0 2.64 0 4 0 C4.33 1.32 4.66 2.64 5 4 C7.97 3.34 10.94 2.68 14 2 C14 3.32 14 4.64 14 6 C12.86111328 5.98259766 12.86111328 5.98259766 11.69921875 5.96484375 C10.70535156 5.95582031 9.71148437 5.94679688 8.6875 5.9375 C7.70136719 5.92589844 6.71523438 5.91429687 5.69921875 5.90234375 C2.90036151 5.87670138 2.90036151 5.87670138 0 7 C0 5 0 5 2 3 C1.34 2.67 0.68 2.34 0 2 C0 1.34 0 0.68 0 0 Z " fill="#46431E" transform="translate(40,40)"/>
<path d="M0 0 C0.33 0.66 0.66 1.32 1 2 C2.32 2 3.64 2 5 2 C5 2.66 5 3.32 5 4 C4.34 4 3.68 4 3 4 C3.33 4.99 3.66 5.98 4 7 C1.69 7 -0.62 7 -3 7 C-2.67 6.01 -2.34 5.02 -2 4 C-2.99 4 -3.98 4 -5 4 C-5 3.34 -5 2.68 -5 2 C-3.35 1.34 -1.7 0.68 0 0 Z " fill="#DAE90F" transform="translate(47,24)"/>
<path d="M0 0 C2.66666667 0 5.33333333 0 8 0 C8 1.98 8 3.96 8 6 C6.02 6.33 4.04 6.66 2 7 C2.33 5.68 2.66 4.36 3 3 C2.01 2.67 1.02 2.34 0 2 C0 1.34 0 0.68 0 0 Z " fill="#716D2D" transform="translate(54,40)"/>
<path d="M0 0 C2.12508244 3.18762365 2.5020163 5.26512223 3 9 C3.66 9 4.32 9 5 9 C5 11.64 5 14.28 5 17 C1.67289832 12.00934748 -0.58827908 6.07888388 0 0 Z " fill="#0D3117" transform="translate(11,46)"/>
<path d="M0 0 C1.77049689 -0.05410687 3.54146849 -0.09284119 5.3125 -0.125 C6.29863281 -0.14820313 7.28476562 -0.17140625 8.30078125 -0.1953125 C11 0 11 0 14 2 C10.59598052 3.13732426 8.22543336 2.83989957 4.75 2.0625 C3.85796875 1.86785156 2.9659375 1.67320313 2.046875 1.47265625 C1.37140625 1.31667969 0.6959375 1.16070312 0 1 C0 0.67 0 0.34 0 0 Z " fill="#B0AFAB" transform="translate(28,53)"/>
<path d="M0 0 C1.65 0 3.3 0 5 0 C4.2575 0.680625 4.2575 0.680625 3.5 1.375 C1.77390663 2.87635519 1.77390663 2.87635519 2 5 C3.32 5.66 4.64 6.32 6 7 C4.125 7.625 4.125 7.625 2 8 C0 6 0 6 -0.125 2.875 C-0.08375 1.92625 -0.0425 0.9775 0 0 Z " fill="#4B471C" transform="translate(33,42)"/>
<path d="M0 0 C0.99 0.33 1.98 0.66 3 1 C2.01 1 1.02 1 0 1 C0 0.67 0 0.34 0 0 Z " fill="#2C4140" transform="translate(77,32)"/>
<path d="M0 0 C0.66 0.33 1.32 0.66 2 1 C1.01 1 0.02 1 -1 1 C-0.67 0.67 -0.34 0.34 0 0 Z " fill="#2C4140" transform="translate(28,24)"/>
<path d="M0 0 C0.99 0.33 1.98 0.66 3 1 C2.01 1 1.02 1 0 1 C0 0.67 0 0.34 0 0 Z " fill="#1A4124" transform="translate(57,18)"/>
<path d="" fill="#041008" transform="translate(0,0)"/>
<path d="" fill="#13401C" transform="translate(0,0)"/>
<path d="" fill="#071107" transform="translate(0,0)"/>
<path d="" fill="#0D2F15" transform="translate(0,0)"/>
<path d="" fill="#051107" transform="translate(0,0)"/>
<path d="" fill="#0E2E14" transform="translate(0,0)"/>
<path d="" fill="#030D04" transform="translate(0,0)"/>
<path d="" fill="#133C15" transform="translate(0,0)"/>
<path d="" fill="#040D05" transform="translate(0,0)"/>
<path d="" fill="#0A1C0E" transform="translate(0,0)"/>
<path d="" fill="#050D07" transform="translate(0,0)"/>
<path d="" fill="#0A1D0D" transform="translate(0,0)"/>
<path d="" fill="#040A04" transform="translate(0,0)"/>
<path d="" fill="#091C0C" transform="translate(0,0)"/>
<path d="" fill="#040A06" transform="translate(0,0)"/>
<path d="" fill="#091E0D" transform="translate(0,0)"/>
<path d="" fill="#030C05" transform="translate(0,0)"/>
<path d="" fill="#081A0B" transform="translate(0,0)"/>
<path d="" fill="#040C06" transform="translate(0,0)"/>
<path d="" fill="#061408" transform="translate(0,0)"/>
<path d="" fill="#030A06" transform="translate(0,0)"/>
<path d="" fill="#061509" transform="translate(0,0)"/>
<path d="" fill="#020703" transform="translate(0,0)"/>
<path d="" fill="#071106" transform="translate(0,0)"/>
<path d="" fill="#010803" transform="translate(0,0)"/>
<path d="" fill="#051106" transform="translate(0,0)"/>
<path d="" fill="#020704" transform="translate(0,0)"/>
<path d="" fill="#061308" transform="translate(0,0)"/>
<path d="" fill="#030803" transform="translate(0,0)"/>
<path d="" fill="#184220" transform="translate(0,0)"/>
<path d="M0 0 C2 1 2 1 2 1 Z " fill="#040904" transform="translate(84,37)"/>
<path d="M0 0 C2 1 2 1 2 1 Z " fill="#040D06" transform="translate(11,36)"/>
<path d="M0 0 C2 1 2 1 2 1 Z " fill="#0A210D" transform="translate(81,35)"/>
<path d="M0 0 C2 1 2 1 2 1 Z " fill="#0E2714" transform="translate(14,34)"/>
<path d="M0 0 C2 1 2 1 2 1 Z " fill="#020301" transform="translate(18,31)"/>
<path d="M0 0 C2 1 2 1 2 1 Z " fill="#040903" transform="translate(74,30)"/>
<path d="M0 0 C2 1 2 1 2 1 Z " fill="#060F07" transform="translate(21,29)"/>
<path d="M0 0 C2 1 2 1 2 1 Z " fill="#0D230F" transform="translate(71,28)"/>
<path d="M0 0 C2 1 2 1 2 1 Z " fill="#0E2C11" transform="translate(24,27)"/>
<path d="M0 0 C2 1 2 1 2 1 Z " fill="#000200" transform="translate(67,25)"/>
<path d="M0 0 C2 1 2 1 2 1 Z " fill="#040D06" transform="translate(64,23)"/>
<path d="M0 0 C2 1 2 1 2 1 Z " fill="#040B06" transform="translate(31,22)"/>
<path d="M0 0 C2 1 2 1 2 1 Z " fill="#0A2411" transform="translate(61,21)"/>
<path d="M0 0 C2 1 2 1 2 1 Z " fill="#0A210F" transform="translate(34,20)"/>
<path d="M0 0 C2 1 2 1 2 1 Z " fill="#010200" transform="translate(38,17)"/>
<path d="M0 0 C2 1 2 1 2 1 Z " fill="#020B04" transform="translate(54,16)"/>
<path d="M0 0 C2 1 2 1 2 1 Z " fill="#061207" transform="translate(41,15)"/>
<path d="M0 0 C2 1 2 1 2 1 Z " fill="#091C0D" transform="translate(51,14)"/>
<path d="M0 0 C2 1 2 1 2 1 Z " fill="#123E16" transform="translate(44,13)"/>
<path d="M0 0 C2 1 2 1 2 1 Z " fill="#010303" transform="translate(47,11)"/>
<path d="" fill="#000000" transform="translate(0,0)"/>
<path d="" fill="#000000" transform="translate(0,0)"/>
<path d="" fill="#000000" transform="translate(0,0)"/>
<path d="" fill="#030603" transform="translate(0,0)"/>
<path d="" fill="#000000" transform="translate(0,0)"/>
<path d="" fill="#000000" transform="translate(0,0)"/>
<path d="" fill="#000000" transform="translate(0,0)"/>
<path d="" fill="#000000" transform="translate(0,0)"/>
<path d="" fill="#000000" transform="translate(0,0)"/>
<path d="" fill="#000000" transform="translate(0,0)"/>
<path d="" fill="#000000" transform="translate(0,0)"/>
<path d="" fill="#000000" transform="translate(0,0)"/>
<path d="" fill="#000000" transform="translate(0,0)"/>
<path d="" fill="#000000" transform="translate(0,0)"/>
<path d="" fill="#000000" transform="translate(0,0)"/>
<path d="" fill="#000000" transform="translate(0,0)"/>
<path d="" fill="#000000" transform="translate(0,0)"/>
<path d="" fill="#000000" transform="translate(0,0)"/>
<path d="" fill="#000000" transform="translate(0,0)"/>
<path d="" fill="#000000" transform="translate(0,0)"/>
<path d="" fill="#000000" transform="translate(0,0)"/>
<path d="" fill="#000000" transform="translate(0,0)"/>
<path d="" fill="#000000" transform="translate(0,0)"/>
<path d="" fill="#000000" transform="translate(0,0)"/>
<path d="" fill="#000000" transform="translate(0,0)"/>
<path d="" fill="#000000" transform="translate(0,0)"/>
<path d="" fill="#000000" transform="translate(0,0)"/>
<path d="" fill="#000000" transform="translate(0,0)"/>
<path d="" fill="#000000" transform="translate(0,0)"/>
<path d="" fill="#000000" transform="translate(0,0)"/>
<path d="" fill="#030802" transform="translate(0,0)"/>
</svg>
